<?xml version="1.0" encoding="utf-8"?>
<!-- Generator: Adobe Illustrator 23.0.6, SVG Export Plug-In . SVG Version: 6.00 Build 0)  -->
<svg version="1.1" id="Layer_1" xmlns="http://www.w3.org/2000/svg" xmlns:xlink="http://www.w3.org/1999/xlink" x="0px" y="0px"
	 viewBox="0 0 100 100" style="enable-background:new 0 0 100 100;" xml:space="preserve">
<style type="text/css">
    path{fill:rgb(107, 105, 103)}
    polygon{fill:rgb(107, 105, 103)}
    circle{fill:rgb(107, 105, 103)}
    rect{fill:rgb(107, 105, 103)}
</style><g>
	<g>
		<path d="M50,29.8l-30.3,25c0,0,0,0.1,0,0.2c0,0.1,0,0.1,0,0.2v25.3c0,0.9,0.3,1.7,1,2.4c0.7,0.7,1.5,1,2.4,1h20.3V63.6h13.5v20.3
			H77c0.9,0,1.7-0.3,2.4-1c0.7-0.7,1-1.5,1-2.4V55.1c0-0.1,0-0.2-0.1-0.3L50,29.8z"/>
		<path d="M92,49.1l-11.6-9.6V18c0-0.5-0.2-0.9-0.5-1.2c-0.3-0.3-0.7-0.5-1.2-0.5H68.6c-0.5,0-0.9,0.2-1.2,0.5
			c-0.3,0.3-0.5,0.7-0.5,1.2v10.3L54,17.5c-1.1-0.9-2.5-1.4-4-1.4c-1.5,0-2.9,0.5-4,1.4L8,49.1c-0.4,0.3-0.5,0.7-0.6,1.1
			c0,0.5,0.1,0.9,0.4,1.2l3.3,3.9c0.3,0.3,0.7,0.5,1.1,0.6c0.4,0,0.8-0.1,1.3-0.4L50,25.2l36.5,30.5c0.3,0.2,0.7,0.4,1.1,0.4h0.2
			c0.5-0.1,0.8-0.3,1.1-0.6l3.3-3.9c0.3-0.4,0.4-0.8,0.4-1.2C92.5,49.8,92.3,49.4,92,49.1z"/>
	</g>
</g>
</svg>
