<?xml version="1.0" encoding="utf-8"?>
<!-- Generator: Adobe Illustrator 23.0.1, SVG Export Plug-In . SVG Version: 6.00 Build 0)  -->
<svg version="1.1" id="Layer_1" xmlns="http://www.w3.org/2000/svg" xmlns:xlink="http://www.w3.org/1999/xlink" x="0px" y="0px"
	 viewBox="0 0 100 100" style="enable-background:new 0 0 100 100;" xml:space="preserve">
<style type="text/css">
    path{fill:rgb(150, 146, 144)}
    polygon{fill:rgb(150, 146, 144)}
    circle{fill:rgb(150, 146, 144)}
    rect{fill:rgb(150, 146, 144)}
</style><path d="M66.6,83.2V16.9c0-2.8,2.2-5,5-5h2.2c2.8,0,5,2.2,5,5v66.3c0,2.8-2.2,5-5,5h-2.2C68.8,88.2,66.6,86,66.6,83.2z"/>
<path d="M45,83.2V16.9c0-2.8,2.2-5,5-5h2.2c2.8,0,5,2.2,5,5v66.3c0,2.8-2.2,5-5,5H50C47.2,88.2,45,86,45,83.2z"/>
<path d="M23.2,83.2V16.9c0-2.8,2.2-5,5-5h2.2c2.8,0,5,2.2,5,5v66.3c0,2.8-2.2,5-5,5h-2.2C25.4,88.2,23.2,86,23.2,83.2z"/>
</svg>
