<?xml version="1.0" encoding="utf-8"?>
<!-- Generator: Adobe Illustrator 23.0.1, SVG Export Plug-In . SVG Version: 6.00 Build 0)  -->
<svg version="1.1" id="Layer_1" xmlns="http://www.w3.org/2000/svg" xmlns:xlink="http://www.w3.org/1999/xlink" x="0px" y="0px"
	 viewBox="0 0 100 100" style="enable-background:new 0 0 100 100;" xml:space="preserve">
<style type="text/css">
    path{fill:rgb(150, 146, 144)}
    polygon{fill:rgb(150, 146, 144)}
    circle{fill:rgb(150, 146, 144)}
    rect{fill:rgb(150, 146, 144)}
</style><path d="M84.1,34.5H17.8c-2.7,0-5-2.2-5-5v-2.2c0-2.8,2.2-5,5-5h66.3c2.8,0,5,2.2,5,5v2.2C89.1,32.2,86.9,34.5,84.1,34.5z"/>
<path d="M84.1,56.1H17.8c-2.7,0-5-2.2-5-5v-2.2c0-2.8,2.2-5,5-5h66.3c2.8,0,5,2.2,5,5v2.2C89.1,53.8,86.9,56.1,84.1,56.1z"/>
<path d="M84.1,77.9H17.8c-2.7,0-5-2.2-5-5v-2.2c0-2.8,2.2-5,5-5h66.3c2.8,0,5,2.2,5,5v2.2C89.1,75.7,86.9,77.9,84.1,77.9z"/>
</svg>
