<?xml version="1.0" encoding="utf-8"?>
<!-- Generator: Adobe Illustrator 23.0.6, SVG Export Plug-In . SVG Version: 6.00 Build 0)  -->
<svg version="1.1" id="Layer_1" xmlns="http://www.w3.org/2000/svg" xmlns:xlink="http://www.w3.org/1999/xlink" x="0px" y="0px"
	 viewBox="0 0 100 100" style="enable-background:new 0 0 100 100;" xml:space="preserve">
<g>
	<path d="M57.3,84.7h-32c-4.6,0-8.2-3.6-8.2-8.2v-32c0-4.6,3.6-8.2,8.2-8.2h32c4.6,0,8.2,3.6,8.2,8.2v32
		C65.4,81.2,61.9,84.7,57.3,84.7z M26.9,74.9h28.7V46.2H26.9V74.9z"/>
	<path d="M74.7,63.6h-32c-4.6,0-8.2-3.6-8.2-8.2v-32c0-4.6,3.6-8.2,8.2-8.2h32c4.6,0,8.2,3.6,8.2,8.2v32
		C82.9,60,79.3,63.6,74.7,63.6z M44.3,53.8h28.7V25.1H44.3V53.8z"/>
	<path d="M81.1,60.6L62.7,82.7l-6.9-6.9l13.8-15.3l5-3.5"/>
	<path d="M82,26.8L61.9,46.9l-6.9-7l20.4-20.4l0,0"/>
	<path d="M44.7,60.6L24.8,83.1l-6.9-6.9l18.8-22.2h1.6"/>
	<path d="M19,39.4L36,18.7l10.3,3L29.2,42l0,0"/>
</g>
</svg>
