<?xml version="1.0" encoding="utf-8"?>
<!-- Generator: Adobe Illustrator 23.0.1, SVG Export Plug-In . SVG Version: 6.00 Build 0)  -->
<svg version="1.1" id="Layer_1" xmlns="http://www.w3.org/2000/svg" xmlns:xlink="http://www.w3.org/1999/xlink" x="0px" y="0px"
	 viewBox="0 0 100 100" style="enable-background:new 0 0 100 100;" xml:space="preserve">
<g id="Outline">
	<g>
		<path d="M50.1,76.4c10.9,0,19.8-8.9,19.8-19.8c0-10-15.4-29.5-17.2-31.7l-2.6-3.2L47.6,25c-1.8,2.2-17.2,21.7-17.2,31.7
			C30.4,67.6,39.2,76.4,50.1,76.4z M50.1,32.4c5.9,7.9,13.2,19.2,13.2,24.3c0,7.3-5.9,13.2-13.2,13.2c-7.3,0-13.2-5.9-13.2-13.2
			C37,51.7,44.2,40.3,50.1,32.4z"/>
		<path d="M59.2,56.7h-4.9c0,2.3-1.8,4.1-4.1,4.1v4.9C55.1,65.7,59.2,61.7,59.2,56.7z"/>
	</g>
</g>
</svg>
