<?xml version="1.0" encoding="utf-8"?>
<!-- Generator: Adobe Illustrator 23.0.6, SVG Export Plug-In . SVG Version: 6.00 Build 0)  -->
<svg version="1.1" id="Layer_1" xmlns="http://www.w3.org/2000/svg" xmlns:xlink="http://www.w3.org/1999/xlink" x="0px" y="0px"
	 viewBox="0 0 100 100" style="enable-background:new 0 0 100 100;" xml:space="preserve">
<path d="M84.9,45.3l-6.8-6.8V21.9c0-2.6-2.1-4.7-4.7-4.7h-4.7c-2.6,0-4.7,2.1-4.7,4.7v2.6l-9.4-9.4c-1.3-1.2-2.5-2.6-4.7-2.6
	s-3.4,1.4-4.7,2.6L15.1,45.3c-1.5,1.5-2.6,2.6-2.6,4.7c0,2.6,2,4.7,4.7,4.7h4.7v28.1c0,2.6,2.1,4.7,4.7,4.7h14.1V64.1
	c0-2.6,2.1-4.7,4.7-4.7h9.4c2.6,0,4.7,2.1,4.7,4.7v23.4h14.1c2.6,0,4.7-2.1,4.7-4.7V54.7h4.7c2.7,0,4.7-2,4.7-4.7
	C87.5,47.9,86.4,46.8,84.9,45.3z"/>
</svg>
