<?xml version="1.0" encoding="utf-8"?>
<!-- Generator: Adobe Illustrator 23.0.1, SVG Export Plug-In . SVG Version: 6.00 Build 0)  -->
<svg version="1.1" id="Layer_1" xmlns="http://www.w3.org/2000/svg" xmlns:xlink="http://www.w3.org/1999/xlink" x="0px" y="0px"
	 viewBox="0 0 100 100" style="enable-background:new 0 0 100 100;" xml:space="preserve">
<g id="Solid">
	<path d="M50.3,17C32,17,17,32,17,50.3C17,68.7,32,83.6,50.3,83.6c18.4,0,33.3-14.9,33.3-33.3C83.6,32,68.7,17,50.3,17z M73.3,37
		H48.4l7.4-12.8C63.3,25.8,69.6,30.6,73.3,37z M59.9,50.3L56.1,57H44.6l-3.8-6.7l3.8-6.7h11.5L59.9,50.3z M48.3,23.8L36.9,43.7
		l-6.4-11.1C35,27.6,41.3,24.3,48.3,23.8z M26.4,38.8L36.9,57H24.6c-0.5-2.1-0.9-4.4-0.9-6.7C23.7,46.2,24.7,42.3,26.4,38.8z
		 M27.3,63.6h24.9l-7.4,12.8C37.4,74.8,31,70.1,27.3,63.6z M52.3,76.9L63.8,57L70.2,68C65.7,73,59.4,76.3,52.3,76.9z M74.3,61.9
		L63.8,43.7h12.3c0.6,2.1,0.9,4.4,0.9,6.7C77,54.5,76,58.4,74.3,61.9z"/>
</g>
<g id="Solid_1_">
	<path d="M50.3,17C32,17,17,32,17,50.3C17,68.7,32,83.6,50.3,83.6c18.4,0,33.3-14.9,33.3-33.3C83.6,32,68.7,17,50.3,17z M73.3,37
		H48.4l7.4-12.8C63.3,25.8,69.6,30.6,73.3,37z M59.9,50.3L56.1,57H44.6l-3.8-6.7l3.8-6.7h11.5L59.9,50.3z M48.3,23.8L36.9,43.7
		l-6.4-11.1C35,27.6,41.3,24.3,48.3,23.8z M26.4,38.8L36.9,57H24.6c-0.5-2.1-0.9-4.4-0.9-6.7C23.7,46.2,24.7,42.3,26.4,38.8z
		 M27.3,63.6h24.9l-7.4,12.8C37.4,74.8,31,70.1,27.3,63.6z M52.3,76.9L63.8,57L70.2,68C65.7,73,59.4,76.3,52.3,76.9z M74.3,61.9
		L63.8,43.7h12.3c0.6,2.1,0.9,4.4,0.9,6.7C77,54.5,76,58.4,74.3,61.9z"/>
</g>
</svg>
