<?xml version="1.0" encoding="utf-8"?>
<!-- Generator: Adobe Illustrator 23.0.1, SVG Export Plug-In . SVG Version: 6.00 Build 0)  -->
<svg version="1.1" id="Layer_1" xmlns="http://www.w3.org/2000/svg" xmlns:xlink="http://www.w3.org/1999/xlink" x="0px" y="0px"
	 preserveAspectRatio="xMidYMid meet"
     viewBox="10.975789473684245 12.664999999999964 300.04842105263157 296.6700000000001" width="296.05" height="292.67"
     style="enable-background:new 0 0 100 100;" xml:space="preserve">
<path d="M209.83 13.77L211.14 13.9L212.43 14.08L213.7 14.3L214.95 14.58L216.18 14.9L217.39 15.27L218.57 15.69L219.74 16.14L220.88 16.65L221.99 17.19L223.08 17.78L224.14 18.4L225.18 19.06L226.18 19.77L227.16 20.51L228.1 21.29L229.02 22.1L229.9 22.94L230.74 23.83L231.56 24.74L232.33 25.68L233.07 26.66L233.78 27.66L234.44 28.7L235.07 29.76L235.65 30.85L236.19 31.97L236.7 33.1L237.15 34.27L237.57 35.46L237.94 36.66L238.26 37.89L238.54 39.14L238.76 40.41L238.94 41.7L239.07 43.01L239.15 44.33L239.18 45.66L239.18 79.14L276.02 79.14L277.36 79.16L278.68 79.24L279.99 79.37L281.27 79.55L282.54 79.78L283.79 80.05L285.02 80.37L286.23 80.74L287.42 81.16L288.58 81.62L289.72 82.12L290.84 82.66L291.93 83.25L292.99 83.87L294.02 84.54L295.03 85.24L296.01 85.98L296.95 86.76L297.86 87.57L298.74 88.42L299.59 89.3L300.4 90.21L301.18 91.15L301.92 92.13L302.62 93.14L303.29 94.17L303.91 95.23L304.5 96.32L305.04 97.44L305.54 98.58L306 99.74L306.42 100.93L306.79 102.13L307.11 103.36L307.38 104.62L307.61 105.88L307.79 107.17L307.92 108.48L308 109.8L308.02 111.14L308.02 274.34L308 275.67L307.92 276.99L307.79 278.3L307.61 279.59L307.38 280.86L307.11 282.11L306.79 283.34L306.42 284.54L306 285.73L305.54 286.9L305.04 288.03L304.5 289.15L303.91 290.24L303.29 291.3L302.62 292.34L301.92 293.34L301.18 294.32L300.4 295.26L299.59 296.17L298.74 297.06L297.86 297.9L296.95 298.71L296.01 299.49L295.03 300.23L294.02 300.94L292.99 301.6L291.93 302.22L290.84 302.81L289.72 303.35L288.58 303.86L287.42 304.31L286.23 304.73L285.02 305.1L283.79 305.42L282.54 305.7L281.27 305.92L279.99 306.1L278.68 306.23L277.36 306.31L276.02 306.34L112.18 306.34L110.85 306.31L109.53 306.23L108.22 306.1L106.93 305.92L105.66 305.7L104.41 305.42L103.18 305.1L101.97 304.73L100.79 304.31L99.62 303.86L98.48 303.35L97.37 302.81L96.28 302.22L95.22 301.6L94.18 300.94L93.18 300.23L92.2 299.49L91.26 298.71L90.34 297.9L89.46 297.06L88.62 296.17L87.8 295.26L87.03 294.32L86.29 293.34L85.58 292.34L84.92 291.3L84.29 290.24L83.71 289.15L83.17 288.03L82.66 286.9L82.21 285.73L81.79 284.54L81.42 283.34L81.1 282.11L80.82 280.86L80.6 279.59L80.42 278.3L80.29 276.99L80.21 275.67L80.18 274.34L80.18 240.87L43.98 240.87L42.64 240.84L41.32 240.76L40.01 240.63L38.73 240.45L37.46 240.23L36.21 239.95L34.98 239.63L33.77 239.26L32.58 238.84L31.42 238.39L30.28 237.88L29.16 237.34L28.07 236.75L27.01 236.13L25.98 235.47L24.97 234.76L23.99 234.02L23.05 233.24L22.14 232.43L21.26 231.59L20.41 230.7L19.6 229.79L18.82 228.85L18.08 227.87L17.38 226.87L16.71 225.83L16.09 224.77L15.5 223.68L14.96 222.56L14.46 221.43L14 220.26L13.58 219.07L13.21 217.87L12.89 216.64L12.62 215.39L12.39 214.12L12.21 212.83L12.08 211.52L12 210.2L11.98 208.87L11.98 45.66L12 44.33L12.08 43.01L12.21 41.7L12.39 40.41L12.62 39.14L12.89 37.89L13.21 36.66L13.58 35.46L14 34.27L14.46 33.1L14.96 31.97L15.5 30.85L16.09 29.76L16.71 28.7L17.38 27.66L18.08 26.66L18.82 25.68L19.6 24.74L20.41 23.83L21.26 22.94L22.14 22.1L23.05 21.29L23.99 20.51L24.97 19.77L25.98 19.06L27.01 18.4L28.07 17.78L29.16 17.19L30.28 16.65L31.42 16.14L32.58 15.69L33.77 15.27L34.98 14.9L36.21 14.58L37.46 14.3L38.73 14.08L40.01 13.9L41.32 13.77L42.64 13.69L43.98 13.66L207.18 13.66L208.51 13.69L209.83 13.77ZM239.15 210.2L239.07 211.52L238.94 212.83L238.76 214.12L238.54 215.39L238.26 216.64L237.94 217.87L237.57 219.07L237.15 220.26L236.7 221.43L236.19 222.56L235.65 223.68L235.07 224.77L234.44 225.83L233.78 226.86L233.07 227.87L232.33 228.85L231.56 229.79L230.74 230.7L229.9 231.59L229.02 232.43L228.1 233.24L227.16 234.02L226.18 234.76L225.18 235.47L224.14 236.13L223.08 236.75L221.99 237.34L220.88 237.88L219.74 238.39L218.57 238.84L217.39 239.26L216.18 239.63L214.95 239.95L213.7 240.23L212.43 240.45L211.14 240.63L209.83 240.76L208.51 240.84L207.18 240.87L118.58 240.87L118.58 267.94L269.62 267.94L269.62 117.54L239.18 117.54L239.18 208.86L239.15 210.2ZM50.38 202.47L200.78 202.47L200.78 52.06L50.38 52.06L50.38 202.47Z"></path>
</svg>
