<?xml version="1.0" encoding="utf-8"?>
<!-- Generator: Adobe Illustrator 23.0.1, SVG Export Plug-In . SVG Version: 6.00 Build 0)  -->
<svg version="1.1" id="Layer_1" xmlns="http://www.w3.org/2000/svg" xmlns:xlink="http://www.w3.org/1999/xlink" x="0px" y="0px"
	 viewBox="0 0 100 100" style="enable-background:new 0 0 100 100;" xml:space="preserve">
<path d="M31.8,56.4c-1.9,0-3.8-0.8-5-2.4c-2.2-2.8-1.8-6.9,1-9.1l35.1-28.2c2.8-2.2,6.9-1.8,9.1,1c2.2,2.8,1.8,6.9-1,9.1L35.8,54.9
	C34.6,55.9,33.2,56.4,31.8,56.4z"/>
<path d="M66.9,84.6c-1.4,0-2.9-0.5-4-1.4L27.7,54.9c-2.8-2.2-3.2-6.3-1-9.1c2.2-2.8,6.3-3.2,9.1-1l35.1,28.2c2.8,2.2,3.2,6.3,1,9.1
	C70.6,83.8,68.8,84.6,66.9,84.6z"/>
</svg>
