<?xml version="1.0" encoding="utf-8"?>
<!-- Generator: Adobe Illustrator 23.0.1, SVG Export Plug-In . SVG Version: 6.00 Build 0)  -->
<svg version="1.1" id="Layer_1" xmlns="http://www.w3.org/2000/svg" xmlns:xlink="http://www.w3.org/1999/xlink" x="0px" y="0px"
	 viewBox="0 0 100 100" style="enable-background:new 0 0 100 100;" xml:space="preserve">
<path d="M51.3,75.9c-1.9,0-3.8-0.8-5-2.4L18.1,38.4c-2.2-2.8-1.8-6.9,1-9.1c2.8-2.2,6.9-1.8,9.1,1l28.2,35.1c2.2,2.8,1.8,6.9-1,9.1
	C54.2,75.5,52.7,75.9,51.3,75.9z"/>
<path d="M51.3,75.9c-1.4,0-2.9-0.5-4-1.4c-2.8-2.2-3.2-6.3-1-9.1l28.2-35.1c2.2-2.8,6.3-3.2,9.1-1c2.8,2.2,3.2,6.3,1,9.1L56.4,73.5
	C55.1,75.1,53.2,75.9,51.3,75.9z"/>
</svg>
