<?xml version="1.0" encoding="utf-8"?>
<!-- Generator: Adobe Illustrator 23.0.6, SVG Export Plug-In . SVG Version: 6.00 Build 0)  -->
<svg version="1.1" id="Layer_1" xmlns="http://www.w3.org/2000/svg" xmlns:xlink="http://www.w3.org/1999/xlink" x="0px" y="0px"
	 viewBox="0 0 100 100" style="enable-background:new 0 0 100 100;" xml:space="preserve">
<g>
	<path d="M24,82.2l-0.1-31.6c0-1.6,1.6-2.6,3-2l28.9,12.2c0.8,0.4,1.3,1.1,1.3,2l0.1,31.6c0,1.6-1.6,2.6-3,2L25.5,84.1
		C24.5,83.8,24,83,24,82.2z M92.1,53.7l-22.9,10l0.1,25.6l22.8-10V53.7 M94.3,47.2c1.1,0,2.2,0.9,2.2,2.2L96.6,81
		c0,0.8-0.5,1.6-1.3,2L66.5,95.5c-0.3,0.1-0.5,0.1-0.8,0.1c-1.1,0-2.2-0.9-2.2-2.2l-0.1-31.6c0-0.8,0.5-1.6,1.3-2l28.8-12.5
		C93.6,47.3,94,47.2,94.3,47.2L94.3,47.2z M59.8,31.2L35.4,41.6L59.8,52l24.3-10.5L59.8,31.2 M59.5,26.1c0.3,0,0.5,0,0.9,0.1
		l30.3,13.4c1.7,0.8,1.7,3.2,0,3.9L60.5,57.2c-0.3,0.1-0.5,0.1-0.9,0.1c-0.3,0-0.5,0-0.9-0.1L28.3,43.7c-1.7-0.8-1.7-3.2,0-3.9
		l30.3-13.4C58.8,26.1,59.1,26.1,59.5,26.1L59.5,26.1z"/>
</g>
<g>
	<path d="M34.6,16.5l-12.3-5.1c-0.3-0.1-0.6-0.2-0.9,0c-0.3,0.1-0.5,0.3-0.6,0.6c-0.1,0.3-0.2,0.6,0,0.9l1.8,4.3l-3.8,1.5
		c-8,3.3-12.1,7.7-12,13c0,1.8,0.5,3.8,1.5,6c0.8,1.9,2.5,4.2,5.4,6.8c0.1,0.1,0.2,0.2,0.3,0.4c0.1,0.1,0.3,0.3,0.4,0.4
		c0.1,0.1,0.3,0.3,0.4,0.3c0.2,0.2,0.4,0.2,0.6,0.1c0.2,0,0.3-0.2,0.4-0.3c0-0.2,0-0.4-0.1-0.5c-0.1-0.1-0.1-0.2-0.2-0.4
		c-0.1-0.2-0.2-0.3-0.2-0.4c-0.4-0.7-0.7-1.4-1-2c-0.5-1.1-0.8-2.2-1-3.2c-0.2-1-0.2-1.9-0.1-2.7c0-0.8,0.3-1.6,0.6-2.3
		c0.4-0.7,0.8-1.4,1.3-2c0.5-0.6,1.2-1.1,2-1.7c0.8-0.5,1.6-1,2.4-1.5c0.8-0.4,1.8-0.8,2.9-1.3l3.8-1.5l1.8,4.3
		c0.1,0.3,0.3,0.5,0.6,0.6c0.3,0.1,0.6,0.2,0.9,0c0.3-0.1,0.5-0.3,0.6-0.6l5.1-12.3c0.1-0.3,0.2-0.6,0-0.9
		C35.2,16.8,35,16.6,34.6,16.5z"/>
</g>
</svg>
