<?xml version="1.0" encoding="utf-8"?>
<!-- Generator: Adobe Illustrator 23.0.1, SVG Export Plug-In . SVG Version: 6.00 Build 0)  -->
<svg version="1.1" id="Layer_1" xmlns="http://www.w3.org/2000/svg" xmlns:xlink="http://www.w3.org/1999/xlink" x="0px" y="0px"
	 viewBox="0 0 100 100" style="enable-background:new 0 0 100 100;" xml:space="preserve">
<g id="Outline_1_">
	<g>
		<circle cx="49.8" cy="49.9" r="10.8"/>
		<path d="M85.9,46.3h-7.5c-1.6-13-12-23.4-25-25v-7.5h-7.2v7.5c-13,1.6-23.4,12-25,25h-7.5v7.2h7.5c1.6,13.1,12,23.4,25,25V86h7.2
			v-7.5c13-1.6,23.4-12,25-25h7.5V46.3z M49.8,71.6c-12,0-21.7-9.7-21.7-21.7s9.7-21.7,21.7-21.7s21.7,9.7,21.7,21.7
			C71.5,61.8,61.8,71.6,49.8,71.6z"/>
	</g>
</g>
</svg>
