<?xml version="1.0" encoding="utf-8"?>
<!-- Generator: Adobe Illustrator 23.0.2, SVG Export Plug-In . SVG Version: 6.00 Build 0)  -->
<svg version="1.1" id="Layer_1" xmlns="http://www.w3.org/2000/svg" xmlns:xlink="http://www.w3.org/1999/xlink" x="0px" y="0px"
	 viewBox="0 0 100 100" style="enable-background:new 0 0 100 100;" xml:space="preserve">
<path d="M51.4,27.9c1.9,0,3.8,0.8,5,2.4l28.2,35.1c2.2,2.8,1.8,6.9-1,9.1c-2.8,2.2-6.9,1.8-9.1-1L46.3,38.4c-2.2-2.8-1.8-6.9,1-9.1
	C48.5,28.3,50,27.9,51.4,27.9z"/>
<path d="M51.4,27.9c1.4,0,2.9,0.5,4,1.4c2.8,2.2,3.2,6.3,1,9.1L28.2,73.5c-2.2,2.8-6.3,3.2-9.1,1c-2.8-2.2-3.2-6.3-1-9.1l28.2-35.1
	C47.6,28.7,49.5,27.9,51.4,27.9z"/>
</svg>
