<?xml version="1.0" encoding="utf-8"?>
<!-- Generator: Adobe Illustrator 23.0.4, SVG Export Plug-In . SVG Version: 6.00 Build 0)  -->
<svg version="1.1" id="Layer_1" xmlns="http://www.w3.org/2000/svg" xmlns:xlink="http://www.w3.org/1999/xlink" x="0px" y="0px"
	 viewBox="0 0 100 100" style="enable-background:new 0 0 100 100;" xml:space="preserve">
<path d="M42.1,51l-29-23.2c-2.3-1.8-2.6-5.2-0.8-7.5c1.8-2.3,5.2-2.6,7.5-0.8l28.9,23.2c2.3,1.8,2.6,5.2,0.8,7.5c-1,1.3-2.6,2-4.1,2
	C44.3,52.2,43.1,51.8,42.1,51z"/>
<path d="M12.4,73.4c-1.8-2.3-1.5-5.7,0.8-7.5l28.9-23.2c2.3-1.8,5.7-1.5,7.5,0.8s1.5,5.7-0.8,7.5l-29,23.3c-0.9,0.7-2.1,1.2-3.3,1.2
	C14.9,75.5,13.5,74.8,12.4,73.4z"/>
<path d="M41.4,75.3c0-2.9,2.3-5.4,5.3-5.4l37.1-0.5c2.9,0,5.4,2.3,5.4,5.3c0,2.9-2.3,5.4-5.3,5.4l-37.2,0.5c-1.2,0-2.4-0.4-3.3-1.1
	C42.2,78.5,41.4,77.1,41.4,75.3z"/>
</svg>
