<?xml version="1.0" encoding="utf-8"?>
<!-- Generator: Adobe Illustrator 19.0.0, SVG Export Plug-In . SVG Version: 6.00 Build 0)  -->
<svg version="1.1" id="Layer_1" xmlns="http://www.w3.org/2000/svg" xmlns:xlink="http://www.w3.org/1999/xlink" x="0px" y="0px"
	 viewBox="0 0 96 96" style="enable-background:new 0 0 96 96;" xml:space="preserve">
<g id="XMLID_1_">
	<path id="XMLID_7_" d="M66.1,32.2l-19-11c-2.5-1.5-6-0.5-7.5,2l-22,38.1c-1.5,2.6-0.6,6,2,7.5l11.7,6.7l16-0.1l20.9-35.7
		C69.7,37.1,68.8,33.7,66.1,32.2z M45.1,71.8l-12.9,0.1l-10.8-6.2c-0.9-0.5-1.2-1.6-0.7-2.5l10.1-17.5l22.1,12.8L45.1,71.8z
		 M65,37.9L54.8,55.3L32.7,42.5L42.7,25c0.3-0.6,0.9-0.9,1.6-0.9l0.9,0.2l19,11C65.2,35.9,65.5,37,65,37.9z M79.2,71.8v3.7H53.5
		v-3.7H79.2z"/>
</g>
</svg>
