<?xml version="1.0" encoding="UTF-8" standalone="no"?>
<!DOCTYPE svg PUBLIC "-//W3C//DTD SVG 1.1//EN" "http://www.w3.org/Graphics/SVG/1.1/DTD/svg11.dtd">
<svg width="100%" height="100%" viewBox="0 0 100 100" version="1.1" xmlns="http://www.w3.org/2000/svg" xmlns:xlink="http://www.w3.org/1999/xlink" xml:space="preserve" xmlns:serif="http://www.serif.com/" style="fill-rule:evenodd;clip-rule:evenodd;stroke-linejoin:round;stroke-miterlimit:2;">
    <g transform="matrix(0.961939,0,0,1.0083,-1.02939,0.368992)">
        <g transform="matrix(1,0,0,1,3.73831,-1.03968)">
            <g transform="matrix(1.03957,0,0,0.991768,1.07012,-0.365955)">
                <path d="M22.045,27.297C17.623,28.952 12.793,33.119 10.117,38.268C7.313,43.664 6.816,50.057 11.102,55.796C13.471,58.969 15.757,60.721 17.778,62.097C19.371,63.183 20.793,63.926 21.814,65.259C22.287,65.877 23.021,66.24 23.799,66.24L82.775,66.24C83.498,66.24 84.186,65.926 84.661,65.38C85.136,64.835 85.351,64.11 85.251,63.394C84.508,58.073 82.509,52.919 80.161,49.035C79.269,47.558 79.365,45.823 79.626,43.998C79.976,41.559 80.703,38.982 81.03,36.458C81.426,33.399 81.248,30.416 79.719,27.716C78.241,25.106 75.456,22.669 70.284,20.853C68.982,20.396 67.554,21.082 67.097,22.384C66.64,23.686 67.326,25.114 68.628,25.571C72.118,26.796 74.184,28.247 75.258,29.993C76.865,32.606 76.189,35.658 75.569,38.66C75.129,40.792 74.64,42.91 74.501,44.908C74.331,47.335 74.664,49.606 75.882,51.621C77.498,54.294 78.922,57.659 79.764,61.24L24.931,61.24C23.987,60.278 22.884,59.496 21.645,58.67C19.747,57.404 17.468,55.964 15.108,52.804C12.119,48.802 12.598,44.337 14.554,40.573C16.638,36.563 20.353,33.269 23.798,31.98C25.09,31.496 25.747,30.055 25.263,28.762C24.779,27.47 23.338,26.814 22.045,27.297Z"/>
            </g>
            <g transform="matrix(1.03957,0,0,0.991768,1.07012,-0.365955)">
                <path d="M82.775,63.74L23.799,63.74C25.448,65.828 26.303,69.099 25.944,76.02C25.122,91.885 38.396,93.14 51.19,91.611C61.033,90.435 71.998,90.1 79.607,80.042C83.041,75.501 83.695,69.516 82.775,63.74Z"/>
            </g>
            <g transform="matrix(1.03957,0,0,0.991768,1.07012,-0.365955)">
                <path d="M85.244,63.346C85.05,62.133 84.004,61.24 82.775,61.24L23.799,61.24C22.841,61.24 21.967,61.787 21.549,62.649C21.131,63.512 21.243,64.537 21.837,65.289C23.255,67.085 23.756,69.937 23.448,75.89C23.162,81.403 24.443,85.367 26.64,88.204C28.739,90.913 31.712,92.639 35.238,93.6C39.98,94.892 45.778,94.776 51.487,94.093C61.952,92.843 73.511,92.244 81.6,81.55C85.44,76.474 86.273,69.803 85.244,63.346ZM80.564,66.24C80.939,70.659 80.227,75.078 77.613,78.533C70.485,87.956 60.115,88.027 50.893,89.129C46.658,89.635 42.367,89.838 38.611,89.219C35.31,88.676 32.433,87.517 30.593,85.142C28.996,83.08 28.233,80.156 28.441,76.149C28.673,71.666 28.384,68.54 27.745,66.24L80.564,66.24Z"/>
            </g>
            <g transform="matrix(1.03957,0,0,0.991768,5.70026,-7.35928)">
                <path d="M58.799,32.017C58.799,32.017 55.905,37.12 55.905,39.307C55.905,40.904 57.202,42.201 58.799,42.201C60.396,42.201 61.693,40.904 61.693,39.307C61.693,37.12 58.799,32.017 58.799,32.017Z"/>
            </g>
            <g transform="matrix(0.0173085,-0.976802,1.1532,0.0185983,3.9381,66.9457)">
                <path d="M45.819,23.795C38.907,23.795 33.295,29.19 33.295,35.834C33.295,42.478 38.907,47.873 45.819,47.873C43.745,45.064 42.062,40.636 42.062,35.834C42.062,31.032 43.745,26.604 45.819,23.795Z"/>
            </g>
            <g transform="matrix(1.03957,0,0,0.991768,-0.812185,0.310846)">
                <path d="M33.365,9.519L43.245,19.399C44.22,20.374 45.805,20.374 46.78,19.399C47.756,18.423 47.756,16.839 46.78,15.863L36.901,5.984C35.925,5.008 34.341,5.008 33.365,5.984C32.39,6.959 32.39,8.543 33.365,9.519Z"/>
            </g>
        </g>
        <g transform="matrix(0.690739,0.602617,-0.801934,0.836617,44.8103,-33.1955)">
            <path d="M31.015,22.799L31.015,37.699C31.015,42.037 35.192,45.449 40.15,45.449L52.867,45.449C57.825,45.449 62.002,42.037 62.002,37.699C62.002,37.699 62.002,22.799 62.002,22.799C62.002,21.592 60.758,20.612 59.226,20.612C57.693,20.612 56.449,21.592 56.449,22.799L56.449,37.699C56.449,39.504 54.93,41.075 52.867,41.075C52.867,41.075 40.15,41.075 40.15,41.075C38.088,41.075 36.569,39.504 36.569,37.699C36.569,37.699 36.569,22.799 36.569,22.799C36.569,21.592 35.324,20.612 33.792,20.612C32.26,20.612 31.015,21.592 31.015,22.799Z"/>
        </g>
    </g>
</svg>
