<?xml version="1.0" encoding="UTF-8" standalone="no"?>
<svg version="1.1" id="Layer_1" xmlns="http://www.w3.org/2000/svg" xmlns:xlink="http://www.w3.org/1999/xlink" x="0px" y="0px"
	 viewBox="0 0 100 20" style="enable-background:new 0 0 100 20;" xml:space="preserve">
<path
   id="path209"
   d="M 28.891395,9.9999981 A 6.3913927,6.3913932 0 0 1 22.500002,16.391391 6.3913927,6.3913932 0 0 1 16.108609,9.9999981 6.3913927,6.3913932 0 0 1 22.500002,3.6086049 6.3913927,6.3913932 0 0 1 28.891395,9.9999981 Z" /><path
   id="path209-8"
   d="M 56.391389,9.9999981 A 6.3913927,6.3913932 0 0 1 49.999996,16.391391 6.3913927,6.3913932 0 0 1 43.608603,9.9999981 6.3913927,6.3913932 0 0 1 49.999996,3.6086049 6.3913927,6.3913932 0 0 1 56.391389,9.9999981 Z" /><path
   id="path209-8-4"
   d="M 83.891393,9.9999981 A 6.3913927,6.3913932 0 0 1 77.5,16.391391 6.3913927,6.3913932 0 0 1 71.108607,9.9999981 6.3913927,6.3913932 0 0 1 77.5,3.6086049 6.3913927,6.3913932 0 0 1 83.891393,9.9999981 Z" />
</svg>
