<?xml version="1.0" encoding="UTF-8" standalone="no"?>
<svg
   viewBox="0 0 100 100"
   version="1.1"
   id="svg1"
   sodipodi:docname="lefthand.svg"
   inkscape:version="1.4 (86a8ad7, 2024-10-11)"
   width="100"
   height="100"
   xmlns:inkscape="http://www.inkscape.org/namespaces/inkscape"
   xmlns:sodipodi="http://sodipodi.sourceforge.net/DTD/sodipodi-0.dtd"
   xmlns="http://www.w3.org/2000/svg"
   xmlns:svg="http://www.w3.org/2000/svg">
  <defs
     id="defs1">
    <rect
       x="-1107.006"
       y="776.73901"
       width="1298.6425"
       height="982.64624"
       id="rect1" />
  </defs>
  <sodipodi:namedview
     id="namedview1"
     pagecolor="#ffffff"
     bordercolor="#000000"
     borderopacity="0.25"
     inkscape:showpageshadow="2"
     inkscape:pageopacity="0.0"
     inkscape:pagecheckerboard="0"
     inkscape:deskcolor="#d1d1d1"
     inkscape:zoom="64"
     inkscape:cx="40.03125"
     inkscape:cy="45.0625"
     inkscape:window-width="1256"
     inkscape:window-height="1631"
     inkscape:window-x="668"
     inkscape:window-y="598"
     inkscape:window-maximized="0"
     inkscape:current-layer="svg1"
     showguides="true" />
  <path
     id="path1-2-1-1"
     d="m 159.99949,32.000976 c -17.7,0 -32,14.3 -32,32 V 336.00098 c 0,1.5 -3.9e-4,3.09961 0.0996,4.59961 L 67.599103,283.00098 c -16,-15.2 -41.299609,-14.60157 -56.599609,1.39843 -15.3000002,16 -14.5996096,41.30157 1.40039,56.60157 l 112.400396,107 c 43.1,41.1 100.4,64 160,64 h 19.19921 c 97.2,0 140.77807,-78.61452 130.5918,-175.2793 -5.98885,-56.83242 -43.75564,-39.11046 -55.15625,-57.55859 -15.43307,-24.97335 -51.73987,-28.75465 -68.80469,-21.99219 -12.21637,4.84111 -22.66597,-0.36001 -8.93554,-12.84571 l 82.89062,-75.37695 c 14.9503,-13.59498 3.00113,-66.34668 -13.98047,-60.10937 -21.40939,7.86363 -54.11856,36.55771 -68.03906,47.13672 l -110.56641,84.02539 c 5.16378,0 -7.82672,0 0,0 V 64.000976 c 0,-17.7 -14.3,-32 -32,-32 z m 32,208.000004 c -212.941148,-208.000008 -212.941148,-208.000008 0,0 z m 27.81055,70.35156 h 24.41406 v 107.03125 h 53.90625 v 20.60547 h -78.32031 z"
     transform="matrix(0.20833333,0,0,0.20833333,4.3628454,-6.6668691)"
     sodipodi:nodetypes="sssccsccsssssccscccssccccccccc" />
</svg>
