<?xml version="1.0" encoding="UTF-8" standalone="no"?>
<!-- Generator: Adobe Illustrator 23.0.1, SVG Export Plug-In . SVG Version: 6.00 Build 0)  -->

<svg
   version="1.1"
   id="Layer_1"
   x="0px"
   y="0px"
   viewBox="0 0 100 100"
   xml:space="preserve"
   width="100"
   height="100"
   sodipodi:docname="lock.svg"
   inkscape:version="1.2.2 (1:1.2.2+202305151914+b0a8486541)"
   xmlns:inkscape="http://www.inkscape.org/namespaces/inkscape"
   xmlns:sodipodi="http://sodipodi.sourceforge.net/DTD/sodipodi-0.dtd"
   xmlns="http://www.w3.org/2000/svg"
   xmlns:svg="http://www.w3.org/2000/svg"><sodipodi:namedview
   id="namedview6"
   pagecolor="#ffffff"
   bordercolor="#000000"
   borderopacity="0.25"
   inkscape:showpageshadow="2"
   inkscape:pageopacity="0.0"
   inkscape:pagecheckerboard="0"
   inkscape:deskcolor="#d1d1d1"
   showgrid="false"
   inkscape:zoom="8.5"
   inkscape:cx="50.058824"
   inkscape:cy="50.058824"
   inkscape:window-width="1846"
   inkscape:window-height="1016"
   inkscape:window-x="74"
   inkscape:window-y="27"
   inkscape:window-maximized="1"
   inkscape:current-layer="Layer_1" /><defs
   id="defs139" />


<path
   id="path1181"
   style="stroke-width:1.15387"
   d="m 50,15.5 a 27.499999,30 0 0 0 -27.5,30 h 8.365234 A 19.250001,24 0 0 1 50,23.5 19.250001,24 0 0 1 69.177735,45.5 H 77.5 A 27.499999,30 0 0 0 50,15.5 Z" /><path
   id="rect1177"
   style="stroke-width:0.497456"
   d="M 25.43164,44.000001 A 12.099155,12.119378 0 0 0 13.333984,56.119141 V 86.880859 A 12.099155,12.119378 0 0 0 25.43164,99.000001 H 74.568359 A 12.099155,12.119378 0 0 0 86.666013,86.880859 V 56.119141 A 12.099155,12.119378 0 0 0 74.568359,44.000001 Z m 24.56836,6 A 12.5,12.5 0 0 1 62.499999,62.5 12.5,12.5 0 0 1 57.546874,72.425782 L 61.25,92.999998 H 38.75 L 42.453125,72.425782 A 12.5,12.5 0 0 1 37.5,62.5 12.5,12.5 0 0 1 50,50.000001 Z" /></svg>
