<?xml version="1.0" encoding="UTF-8" standalone="no"?>
<!-- Generator: Adobe Illustrator 23.0.1, SVG Export Plug-In . SVG Version: 6.00 Build 0)  -->

<svg
   version="1.1"
   id="Layer_1"
   x="0px"
   y="0px"
   viewBox="0 0 100 100"
   style="enable-background:new 0 0 100 100;"
   xml:space="preserve"
   sodipodi:docname="lock_open.svg"
   inkscape:version="1.2.2 (1:1.2.2+202305151914+b0a8486541)"
   xmlns:inkscape="http://www.inkscape.org/namespaces/inkscape"
   xmlns:sodipodi="http://sodipodi.sourceforge.net/DTD/sodipodi-0.dtd"
   xmlns="http://www.w3.org/2000/svg"
   xmlns:svg="http://www.w3.org/2000/svg"><defs
   id="defs139"><filter
     id="mask-powermask-path-effect1054_inverse"
     inkscape:label="filtermask-powermask-path-effect1054"
     style="color-interpolation-filters:sRGB"
     height="100"
     width="100"
     x="-50"
     y="-50"><feColorMatrix
       id="mask-powermask-path-effect1054_primitive1"
       values="1"
       type="saturate"
       result="fbSourceGraphic" /><feColorMatrix
       id="mask-powermask-path-effect1054_primitive2"
       values="-1 0 0 0 1 0 -1 0 0 1 0 0 -1 0 1 0 0 0 1 0 "
       in="fbSourceGraphic" /></filter></defs><sodipodi:namedview
   id="namedview137"
   pagecolor="#ffffff"
   bordercolor="#000000"
   borderopacity="0.25"
   inkscape:showpageshadow="2"
   inkscape:pageopacity="0.0"
   inkscape:pagecheckerboard="0"
   inkscape:deskcolor="#d1d1d1"
   showgrid="false"
   inkscape:zoom="4"
   inkscape:cx="42.25"
   inkscape:cy="34.375"
   inkscape:window-width="1846"
   inkscape:window-height="1016"
   inkscape:window-x="74"
   inkscape:window-y="27"
   inkscape:window-maximized="1"
   inkscape:current-layer="g2343"
   showguides="true"
   inkscape:lockguides="false"><sodipodi:guide
     position="50,154.23529"
     orientation="1,0"
     id="guide3281"
     inkscape:locked="false" /><sodipodi:guide
     position="50.287771,129.07457"
     orientation="0,-1"
     id="guide3337"
     inkscape:locked="false" /></sodipodi:namedview>


<g
   id="g2343"
   inkscape:label="lock"
   transform="matrix(1.0132444,0,0,1.0132444,-3.8541504,-7.7183239)"><path
     id="path488"
     style="fill:#000000;fill-opacity:1;stroke:none;stroke-width:2.31924;stroke-linecap:round;stroke-linejoin:round"
     d="m 38.277556,43.923286 c -4.405487,-0.0031 -7.930464,0.0051 -9.686265,0.03595 -7.023218,0.123538 -12.316786,6.372296 -12.272637,12.272628 0.04418,5.900329 -0.01224,29.317964 0,36.81788 0.01224,7.499936 4.607878,12.311176 12.272637,12.272636 7.664757,-0.0385 42.412959,-0.0865 49.09051,0 6.677552,0.0866 12.202964,-5.466737 12.272625,-12.272636 0.06962,-6.805894 -0.0086,-29.43577 0,-36.81788 0.0086,-7.382109 -5.540388,-12.386105 -12.272625,-12.272628 -5.049172,0.0851 -26.187793,-0.02673 -39.404245,-0.03595 z m 14.858984,6.17227 a 15.340787,15.340787 0 0 1 15.34079,15.340785 15.340787,15.340787 0 0 1 -8.125826,13.516671 l 5.057673,20.23306 H 40.863915 l 5.057663,-20.23306 A 15.340787,15.340787 0 0 1 37.795762,65.436341 15.340787,15.340787 0 0 1 53.13654,50.095556 Z"
     inkscape:label="body" /><path
     style="fill:none;fill-opacity:1;stroke:#000000;stroke-width:11.3333;stroke-linecap:round;stroke-linejoin:round;stroke-dasharray:none;stroke-opacity:1"
     id="path3525"
     sodipodi:type="arc"
     sodipodi:cx="53.150204"
     sodipodi:cy="40.150459"
     sodipodi:rx="25.885929"
     sodipodi:ry="25.885929"
     sodipodi:start="2.8797933"
     sodipodi:end="5.2359878"
     sodipodi:arc-type="arc"
     d="m 28.146316,46.85023 a 25.885929,25.885929 0 0 1 9.245533,-27.23646 25.885929,25.885929 0 0 1 28.70132,-1.881182"
     sodipodi:open="true"
     inkscape:label="shackle" /></g></svg>
