<?xml version="1.0" encoding="UTF-8" standalone="no"?>
<!-- Generator: Adobe Illustrator 23.0.1, SVG Export Plug-In . SVG Version: 6.00 Build 0)  -->

<svg
   version="1.1"
   id="Layer_1"
   x="0px"
   y="0px"
   viewBox="0 0 100 100"
   xml:space="preserve"
   sodipodi:docname="lock_open.svg"
   inkscape:version="1.2.2 (1:1.2.2+202305151914+b0a8486541)"
   inkscape:export-filename="../../../../../../Schreibtisch/lock_open.svg"
   inkscape:export-xdpi="96"
   inkscape:export-ydpi="96"
   width="100"
   height="100"
   xmlns:inkscape="http://www.inkscape.org/namespaces/inkscape"
   xmlns:sodipodi="http://sodipodi.sourceforge.net/DTD/sodipodi-0.dtd"
   xmlns="http://www.w3.org/2000/svg"
   xmlns:svg="http://www.w3.org/2000/svg"><defs
   id="defs139" /><sodipodi:namedview
   id="namedview137"
   pagecolor="#ffffff"
   bordercolor="#000000"
   borderopacity="0.25"
   inkscape:showpageshadow="2"
   inkscape:pageopacity="0.0"
   inkscape:pagecheckerboard="0"
   inkscape:deskcolor="#d1d1d1"
   showgrid="false"
   inkscape:zoom="7.69"
   inkscape:cx="50"
   inkscape:cy="50"
   inkscape:window-width="923"
   inkscape:window-height="1016"
   inkscape:window-x="997"
   inkscape:window-y="27"
   inkscape:window-maximized="0"
   inkscape:current-layer="Layer_1"
   showguides="true"
   inkscape:lockguides="false" />


<path
   id="path1181"
   style="stroke-width:1.15387"
   d="m 24.952897,15.665575 c -5.787641,7.714887 -6.371125,18.535344 -2.397094,27.185609 2.243998,5.057777 5.877113,9.46864 10.339884,12.728824 l 4.944674,-6.747395 C 31.479095,43.536623 27.072889,35.062736 28.675535,26.667189 29.812713,20.181766 35.42506,15.091685 41.821597,13.973848 c 5.881217,-1.215981 11.984061,0.272488 17.218073,3.024349 1.696899,1.122832 3.032965,-1.105997 3.802768,-2.354794 0.769804,-1.248795 2.150796,-2.970072 0.846523,-4.239298 C 62.384689,9.13488 60.874775,8.5402545 58.846873,7.483623 49.193954,3.272023 37.08749,4.3478991 28.980697,11.330967 c -1.505721,1.281065 -2.859679,2.739791 -4.0278,4.334608 z" /><path
   id="rect1177"
   style="stroke-width:0.497456"
   d="M 25.43164,44.000001 A 12.099155,12.119378 0 0 0 13.333984,56.119141 V 86.880859 A 12.099155,12.119378 0 0 0 25.43164,99.000001 H 74.568359 A 12.099155,12.119378 0 0 0 86.666013,86.880859 V 56.119141 A 12.099155,12.119378 0 0 0 74.568359,44.000001 Z m 24.56836,6 A 12.5,12.5 0 0 1 62.499999,62.5 12.5,12.5 0 0 1 57.546874,72.425782 L 61.25,92.999998 H 38.75 L 42.453125,72.425782 A 12.5,12.5 0 0 1 37.5,62.5 12.5,12.5 0 0 1 50,50.000001 Z" /></svg>
