<?xml version="1.0" encoding="utf-8"?>
<!-- Generator: Adobe Illustrator 23.0.1, SVG Export Plug-In . SVG Version: 6.00 Build 0)  -->
<svg version="1.1" id="Layer_1" xmlns="http://www.w3.org/2000/svg" xmlns:xlink="http://www.w3.org/1999/xlink" x="0px" y="0px"
	 viewBox="0 0 100 100" style="enable-background:new 0 0 100 100;" xml:space="preserve">
<path d="M32.4,53.5H23c-2.8,0-5-2.2-5-5V23c0-2.8,2.2-5,5-5h25.5c2.8,0,5,2.2,5,5v10.3h-6V24H24v23.5h8.4V53.5z"/>
<path d="M75.7,81.3H50.1c-2.8,0-5-2.2-5-5V65.2h6v10.1h23.6V51.8h-9.5v-6h10.5c2.8,0,5,2.2,5,5v25.5C80.7,79.1,78.5,81.3,75.7,81.3z
	"/>
<path d="M61.8,67.4H36.3c-2.8,0-5-2.2-5-5V36.9c0-2.8,2.2-5,5-5h25.5c2.8,0,5,2.2,5,5v25.5C66.8,65.2,64.6,67.4,61.8,67.4z
	 M37.3,61.4h23.5V37.9H37.3V61.4z"/>
</svg>
