<?xml version="1.0" encoding="utf-8"?>
<!-- Generator: Adobe Illustrator 23.0.1, SVG Export Plug-In . SVG Version: 6.00 Build 0)  -->
<svg version="1.1" id="Layer_1" xmlns="http://www.w3.org/2000/svg" xmlns:xlink="http://www.w3.org/1999/xlink" x="0px" y="0px"
	 viewBox="0 0 100 100" style="enable-background:new 0 0 100 100;" xml:space="preserve">
<circle cx="59.6" cy="42.7" r="4.9"/>
<path d="M41.1,84.2c-1,0-2-0.4-2.7-1.3l-22-26.7c-1.2-1.5-1-3.7,0.5-4.9l31.9-26.4c0.6-0.5,1.4-0.8,2.2-0.8c0,0,0,0,0,0l27.1,0.1
	c1,0,2,0.5,2.7,1.3c0.7,0.8,0.9,1.9,0.7,2.9L76.5,55c-0.2,0.8-0.6,1.5-1.2,2L43.3,83.4C42.7,83.9,41.9,84.2,41.1,84.2z M24,54.5
	l17.6,21.3l28.3-23.3l4-21.2l-21.6-0.1L24,54.5z"/>
</svg>
