<svg viewBox="0 0 512 512" xmlns="http://www.w3.org/2000/svg">
    <!--! Font Awesome Pro 6.4.0 by @fontawesome - https://fontawesome.com License - https://fontawesome.com/license (Commercial License) Copyright 2023 Fonticons, Inc.-->
    <path d="M272.159 79.678c-8.937-8.937-23.452-8.937-32.39 0l-45.76 45.76c-8.938 8.939-8.938 23.454 0 32.39 8.937 8.939 23.452 8.939 32.39 0l6.72-6.72v82.012h-82.011l6.72-6.721c8.939-8.938 8.939-23.453 0-32.39-8.936-8.938-23.451-8.938-32.39 0l-45.76 45.76c-8.937 8.938-8.937 23.453 0 32.39l45.76 45.76c8.939 8.939 23.454 8.939 32.39 0 8.939-8.936 8.939-23.45 0-32.39l-6.72-6.72h82.012v82.083l-6.721-6.72c-8.938-8.939-23.453-8.939-32.39 0-8.938 8.936-8.938 23.451 0 32.39l45.76 45.76c8.938 8.937 23.453 8.937 32.39 0l45.76-45.76c8.939-8.939 8.939-23.454 0-32.39-8.936-8.939-23.45-8.939-32.39 0l-6.72 6.72V278.88h82.083l-6.72 6.721c-8.939 8.938-8.939 23.453 0 32.39 8.936 8.938 23.451 8.938 32.39 0l45.76-45.76c8.937-8.938 8.937-23.453 0-32.39l-45.76-45.76c-8.939-8.939-23.454-8.939-32.39 0-8.939 8.936-8.939 23.45 0 32.39l6.72 6.72H278.88v-82.083l6.721 6.72c8.938 8.939 23.453 8.939 32.39 0 8.938-8.936 8.938-23.451 0-32.39l-45.76-45.76z" style="stroke-width:.715011"/>
</svg>