<?xml version="1.0" encoding="utf-8"?>
<!-- Generator: Adobe Illustrator 23.0.1, SVG Export Plug-In . SVG Version: 6.00 Build 0)  -->
<svg version="1.1" id="Layer_1" xmlns="http://www.w3.org/2000/svg" xmlns:xlink="http://www.w3.org/1999/xlink" x="0px" y="0px"
	 viewBox="0 0 100 100" style="enable-background:new 0 0 100 100;" xml:space="preserve">
<g id="Layer_17">
	<path d="M48.4,34.9c1.4-1.4,3.8-1.4,5.2,0l1.1,1.1l10.4-10.3c2.9-2.9,7.6-2.9,10.5,0c2.9,2.9,2.9,7.6,0,10.5L65.2,46.5l1.1,1.1
		c1.4,1.4,1.4,3.8,0,5.2c-1.4,1.4-3.8,1.4-5.2,0L48.4,40.2C46.9,38.7,46.9,36.4,48.4,34.9z"/>
	<polygon points="47.4,64.3 36.2,75.4 25.8,75.4 25.8,65 26.5,64.3 26.5,64.3 	"/>
	<path d="M76.8,37.4c1.8-1.8,2.8-4.2,2.7-6.5c0-2.4-0.9-4.7-2.7-6.5l0,0c0,0,0,0,0,0c0,0,0,0,0,0l0,0c-1.8-1.8-4.2-2.7-6.5-2.7
		c-2.4,0-4.7,0.9-6.5,2.7l0,0l-9.1,9.1c-1-0.9-2.4-1.4-3.7-1.4c-1.4,0-2.8,0.5-3.9,1.6c-1.1,1.1-1.6,2.5-1.6,3.9
		c0,1.3,0.5,2.6,1.4,3.7L25.2,62.9c0,0-0.1,0-0.1,0.1l0,0l-0.7,0.7C24.1,64,24,64.5,24,65v9.7l-3.2,3.2c-0.7,0.7-0.7,1.9,0,2.6
		c0.7,0.7,1.9,0.7,2.6,0l3.1-3.1l9.7,0c0.5,0,1-0.2,1.3-0.5l11.2-11.1L60,54.3c1,0.9,2.4,1.4,3.7,1.4c1.4,0,2.8-0.5,3.9-1.6
		c1.1-1.1,1.6-2.5,1.6-3.9c0-1.3-0.5-2.6-1.4-3.7L76.8,37.4L76.8,37.4z M46.1,63L35.5,73.5l-7.8,0v-7.9l0.1-0.1c0,0,0.1,0,0.1-0.1
		L49.3,44l7.9,7.9L46.1,63z M74.2,34.8L74.2,34.8L63.9,45.2c-0.7,0.7-0.7,1.9,0,2.6c0.2,0.2,0.4,0.3,0.7,0.4
		c0.1,0.2,0.2,0.5,0.4,0.7c0.4,0.4,0.5,0.8,0.5,1.3c0,0.5-0.2,0.9-0.5,1.3c-0.4,0.4-0.8,0.5-1.3,0.5c-0.5,0-0.9-0.2-1.3-0.5
		L49.7,38.9c-0.4-0.4-0.5-0.8-0.5-1.3c0-0.5,0.2-0.9,0.5-1.3c0.4-0.4,0.8-0.5,1.3-0.5c0.5,0,0.9,0.2,1.3,0.5
		c0.2,0.2,0.4,0.3,0.7,0.4c0.1,0.2,0.2,0.5,0.4,0.7c0.7,0.7,1.9,0.7,2.6,0L66.4,27l0,0c1.1-1.1,2.5-1.6,3.9-1.6
		c1.4,0,2.8,0.5,3.9,1.6l0,0c1.1,1.1,1.6,2.5,1.6,3.9C75.9,32.3,75.3,33.7,74.2,34.8z"/>
	<path d="M61.8,45.7l2.1,2.1l1.1,1.1c0.7,0.7,1.9,0.7,2.6,0c0.7-0.7,0.7-1.9,0-2.6l-1.1-1.1l-2.1-2.1c-0.7-0.7-1.9-0.7-2.6,0
		C61.1,43.8,61.1,45,61.8,45.7L61.8,45.7z"/>
	<path d="M52.3,36.2l1.1,1.1l2.1,2.1c0.7,0.7,1.9,0.7,2.6,0c0.7-0.7,0.7-1.9,0-2.6L56,34.7l-1.1-1.1c-0.7-0.7-1.9-0.7-2.6,0
		C51.6,34.3,51.6,35.5,52.3,36.2L52.3,36.2z"/>
	<path d="M26.5,66.1L26.5,66.1h20.9c1,0,1.9-0.8,1.9-1.9c0-1-0.8-1.9-1.9-1.9H26.5h0c-1,0-1.9,0.8-1.9,1.9
		C24.6,65.3,25.5,66.1,26.5,66.1L26.5,66.1z"/>
</g>
</svg>
