<?xml version="1.0" encoding="UTF-8" standalone="no"?>
<svg
   id="Layer_1"
   data-name="Layer 1"
   version="1.1"
   viewBox="0 0 100 100"
   sodipodi:docname="polyline.svg"
   inkscape:version="1.3.2 (091e20e, 2023-11-25, custom)"
   xmlns:inkscape="http://www.inkscape.org/namespaces/inkscape"
   xmlns:sodipodi="http://sodipodi.sourceforge.net/DTD/sodipodi-0.dtd"
   xmlns="http://www.w3.org/2000/svg"
   xmlns:svg="http://www.w3.org/2000/svg">
  <sodipodi:namedview
     id="namedview9"
     pagecolor="#ffffff"
     bordercolor="#000000"
     borderopacity="0.25"
     inkscape:showpageshadow="2"
     inkscape:pageopacity="0.0"
     inkscape:pagecheckerboard="0"
     inkscape:deskcolor="#d1d1d1"
     inkscape:zoom="8.13"
     inkscape:cx="49.938499"
     inkscape:cy="23.923739"
     inkscape:window-width="1920"
     inkscape:window-height="1009"
     inkscape:window-x="-8"
     inkscape:window-y="-8"
     inkscape:window-maximized="1"
     inkscape:current-layer="Layer_1" />
  <defs
     id="defs1">
    <style
       id="style1">
      .cls-1, .cls-2, .cls-3 {
        stroke: #fff;
        stroke-miterlimit: 10;
      }

      .cls-1, .cls-3 {
        fill: none;
      }

      .cls-2 {
        fill: #fff;
      }

      .cls-3 {
        stroke-width: 2px;
      }
    </style>
    <filter
       inkscape:label="Black Light"
       inkscape:menu="Color"
       inkscape:menu-tooltip="Light areas turn to black"
       style="color-interpolation-filters:sRGB;"
       id="filter10"
       x="-0.029069767"
       y="-0.029069767"
       width="1.0581395"
       height="1.0581395">
      <feColorMatrix
         type="luminanceToAlpha"
         result="result2"
         id="feColorMatrix9" />
      <feComposite
         in2="SourceGraphic"
         operator="arithmetic"
         in="result2"
         k3="2"
         result="result4"
         id="feComposite9" />
      <feBlend
         in="result4"
         mode="multiply"
         result="result3"
         in2="result2"
         id="feBlend9" />
      <feComposite
         in2="SourceGraphic"
         operator="in"
         in="result3"
         id="feComposite10" />
    </filter>
    <filter
       inkscape:label="Black Light"
       inkscape:menu="Color"
       inkscape:menu-tooltip="Light areas turn to black"
       style="color-interpolation-filters:sRGB;"
       id="filter12"
       x="-0.029069767"
       y="-0.029069767"
       width="1.0581395"
       height="1.0581395">
      <feColorMatrix
         type="luminanceToAlpha"
         result="result2"
         id="feColorMatrix10" />
      <feComposite
         in2="SourceGraphic"
         operator="arithmetic"
         in="result2"
         k3="2"
         result="result4"
         id="feComposite11" />
      <feBlend
         in="result4"
         mode="multiply"
         result="result3"
         in2="result2"
         id="feBlend11" />
      <feComposite
         in2="SourceGraphic"
         operator="in"
         in="result3"
         id="feComposite12" />
    </filter>
    <filter
       inkscape:label="Black Light"
       inkscape:menu="Color"
       inkscape:menu-tooltip="Light areas turn to black"
       style="color-interpolation-filters:sRGB;"
       id="filter14"
       x="-0.029069767"
       y="-0.029069767"
       width="1.0581395"
       height="1.0581395">
      <feColorMatrix
         type="luminanceToAlpha"
         result="result2"
         id="feColorMatrix12" />
      <feComposite
         in2="SourceGraphic"
         operator="arithmetic"
         in="result2"
         k3="2"
         result="result4"
         id="feComposite13" />
      <feBlend
         in="result4"
         mode="multiply"
         result="result3"
         in2="result2"
         id="feBlend13" />
      <feComposite
         in2="SourceGraphic"
         operator="in"
         in="result3"
         id="feComposite14" />
    </filter>
    <filter
       inkscape:label="Black Light"
       inkscape:menu="Color"
       inkscape:menu-tooltip="Light areas turn to black"
       style="color-interpolation-filters:sRGB;"
       id="filter16"
       x="-0.029069767"
       y="-0.029069767"
       width="1.0581395"
       height="1.0581395">
      <feColorMatrix
         type="luminanceToAlpha"
         result="result2"
         id="feColorMatrix14" />
      <feComposite
         in2="SourceGraphic"
         operator="arithmetic"
         in="result2"
         k3="2"
         result="result4"
         id="feComposite15" />
      <feBlend
         in="result4"
         mode="multiply"
         result="result3"
         in2="result2"
         id="feBlend15" />
      <feComposite
         in2="SourceGraphic"
         operator="in"
         in="result3"
         id="feComposite16" />
    </filter>
    <filter
       inkscape:label="Black Light"
       inkscape:menu="Color"
       inkscape:menu-tooltip="Light areas turn to black"
       style="color-interpolation-filters:sRGB;"
       id="filter18"
       x="-0.038167939"
       y="-0.025125628"
       width="1.0381679"
       height="1.0251256">
      <feColorMatrix
         type="luminanceToAlpha"
         result="result2"
         id="feColorMatrix16" />
      <feComposite
         in2="SourceGraphic"
         operator="arithmetic"
         in="result2"
         k3="2"
         result="result4"
         id="feComposite17" />
      <feBlend
         in="result4"
         mode="multiply"
         result="result3"
         in2="result2"
         id="feBlend17" />
      <feComposite
         in2="SourceGraphic"
         operator="in"
         in="result3"
         id="feComposite18" />
    </filter>
    <filter
       inkscape:label="Black Light"
       inkscape:menu="Color"
       inkscape:menu-tooltip="Light areas turn to black"
       style="color-interpolation-filters:sRGB;"
       id="filter20"
       x="-0.036231884"
       y="0"
       width="1.0362319"
       height="1.0246305">
      <feColorMatrix
         type="luminanceToAlpha"
         result="result2"
         id="feColorMatrix18" />
      <feComposite
         in2="SourceGraphic"
         operator="arithmetic"
         in="result2"
         k3="2"
         result="result4"
         id="feComposite19" />
      <feBlend
         in="result4"
         mode="multiply"
         result="result3"
         in2="result2"
         id="feBlend19" />
      <feComposite
         in2="SourceGraphic"
         operator="in"
         in="result3"
         id="feComposite20" />
    </filter>
    <filter
       inkscape:label="Black Light"
       inkscape:menu="Color"
       inkscape:menu-tooltip="Light areas turn to black"
       style="color-interpolation-filters:sRGB;"
       id="filter22"
       x="-0.066225166"
       y="-0.048780488"
       width="1.0662252"
       height="1.0487805">
      <feColorMatrix
         type="luminanceToAlpha"
         result="result2"
         id="feColorMatrix20" />
      <feComposite
         in2="SourceGraphic"
         operator="arithmetic"
         in="result2"
         k3="2"
         result="result4"
         id="feComposite21" />
      <feBlend
         in="result4"
         mode="multiply"
         result="result3"
         in2="result2"
         id="feBlend21" />
      <feComposite
         in2="SourceGraphic"
         operator="in"
         in="result3"
         id="feComposite22" />
    </filter>
    <filter
       inkscape:label="Black Light"
       inkscape:menu="Color"
       inkscape:menu-tooltip="Light areas turn to black"
       style="color-interpolation-filters:sRGB;"
       id="filter24"
       x="-0.081300813"
       y="0"
       width="1.0813008"
       height="1.0460829">
      <feColorMatrix
         type="luminanceToAlpha"
         result="result2"
         id="feColorMatrix22" />
      <feComposite
         in2="SourceGraphic"
         operator="arithmetic"
         in="result2"
         k3="2"
         result="result4"
         id="feComposite23" />
      <feBlend
         in="result4"
         mode="multiply"
         result="result3"
         in2="result2"
         id="feBlend23" />
      <feComposite
         in2="SourceGraphic"
         operator="in"
         in="result3"
         id="feComposite24" />
    </filter>
    <filter
       inkscape:label="Black Light"
       inkscape:menu="Color"
       inkscape:menu-tooltip="Light areas turn to black"
       style="color-interpolation-filters:sRGB;"
       id="filter26"
       x="-0.066225166"
       y="-0.048780488"
       width="1.0662252"
       height="1.0487805">
      <feColorMatrix
         type="luminanceToAlpha"
         result="result2"
         id="feColorMatrix24" />
      <feComposite
         in2="SourceGraphic"
         operator="arithmetic"
         in="result2"
         k3="2"
         result="result4"
         id="feComposite25" />
      <feBlend
         in="result4"
         mode="multiply"
         result="result3"
         in2="result2"
         id="feBlend25" />
      <feComposite
         in2="SourceGraphic"
         operator="in"
         in="result3"
         id="feComposite26" />
    </filter>
  </defs>
  <path
     class="cls-1"
     d="m 46.4,41 c 0,11.2 6.2,20.3 13.8,20.3"
     id="path6"
     style="filter:url(#filter20)" />
  <path
     class="cls-3"
     d="m 21.7,59 c 0,-11.3 6.8,-20.5 15.1,-20.5"
     id="path7"
     style="filter:url(#filter22)" />
  <path
     class="cls-3"
     d="m 46.4,39.7 c 0,12 5.5,21.7 12.3,21.7"
     id="path8"
     style="filter:url(#filter24)" />
  <path
     class="cls-3"
     d="M 66.2,59 C 66.2,47.7 73,38.5 81.3,38.5"
     id="path9"
     style="filter:url(#filter26)" />
  <path
     d="m 21.433948,57.952029 c -2,0 -3.8,0.7 -5.3,1.9 -2,1.6 -3.3,4 -3.3,6.7 0,4.7 3.9,8.6 8.6,8.6 1.1,0 2.2,-0.2 3.2,-0.6 3.1,-1.3 5.4,-4.4 5.4,-8 0,-4.7 -3.9,-8.6 -8.6,-8.6 z m 0,11.6 c -1.7,0 -3,-1.3 -3,-3 0,-1 0.4,-1.8 1.1,-2.4 0.5,-0.4 1.2,-0.6 1.9,-0.6 1.7,0 3,1.3 3,3 0,1.3 -0.8,2.4 -1.9,2.8 -0.4,0.1 -0.7,0.2 -1.1,0.2 z"
     id="path11" />
  <path
     d="m 41.6,27 c -2,0 -3.8,0.7 -5.3,1.9 -2,1.6 -3.3,4 -3.3,6.7 0,4.7 3.9,8.6 8.6,8.6 1.1,0 2.2,-0.2 3.2,-0.6 3.1,-1.3 5.4,-4.4 5.4,-8 0,-4.7 -3.9,-8.6 -8.6,-8.6 z m 0,11.6 c -1.7,0 -3,-1.3 -3,-3 0,-1 0.4,-1.8 1.1,-2.4 0.5,-0.4 1.2,-0.6 1.9,-0.6 1.7,0 3,1.3 3,3 0,1.3 -0.8,2.4 -1.9,2.8 -0.4,0.1 -0.7,0.2 -1.1,0.2 z"
     id="path11-1" />
  <path
     d="m 88.326937,27.020911 c -2,0 -3.8,0.7 -5.3,1.9 -2,1.6 -3.3,4 -3.3,6.7 0,4.7 3.9,8.6 8.6,8.6 1.1,0 2.2,-0.2 3.2,-0.6 3.1,-1.3 5.4,-4.4 5.4,-8 0,-4.7 -3.9,-8.6 -8.6,-8.6 z m 0,11.6 c -1.7,0 -3,-1.3 -3,-3 0,-1 0.4,-1.8 1.1,-2.4 0.5,-0.4 1.2,-0.6 1.9,-0.6 1.7,0 3,1.3 3,3 0,1.3 -0.8,2.4 -1.9,2.8 -0.4,0.1 -0.7,0.2 -1.1,0.2 z"
     id="path11-48" />
  <path
     d="m 65.061254,57.888069 c -2,0 -3.8,0.7 -5.3,1.9 -2,1.6 -3.3,4 -3.3,6.7 0,4.7 3.9,8.6 8.6,8.6 1.1,0 2.2,-0.2 3.2,-0.6 3.1,-1.3 5.4,-4.4 5.4,-8 0,-4.7 -3.9,-8.6 -8.6,-8.6 z m 0,11.6 c -1.7,0 -3,-1.3 -3,-3 0,-1 0.4,-1.8 1.1,-2.4 0.5,-0.4 1.2,-0.6 1.9,-0.6 1.7,0 3,1.3 3,3 0,1.3 -0.8,2.4 -1.9,2.8 -0.4,0.1 -0.7,0.2 -1.1,0.2 z"
     id="path11-4" />
</svg>
