<?xml version="1.0" encoding="UTF-8" standalone="no"?>
<!-- Generator: Adobe Illustrator 27.2.0, SVG Export Plug-In . SVG Version: 6.00 Build 0)  -->

<svg
   version="1.1"
   id="Layer_1"
   x="0px"
   y="0px"
   viewBox="0 0 100 100"
   style="enable-background:new 0 0 100 100;"
   xml:space="preserve"
   sodipodi:docname="polygon_lasso_tablet.svg"
   inkscape:version="1.2.1 (9c6d41e410, 2022-07-14)"
   xmlns:inkscape="http://www.inkscape.org/namespaces/inkscape"
   xmlns:sodipodi="http://sodipodi.sourceforge.net/DTD/sodipodi-0.dtd"
   xmlns="http://www.w3.org/2000/svg"
   xmlns:svg="http://www.w3.org/2000/svg"><defs
   id="defs3976" /><sodipodi:namedview
   id="namedview3974"
   pagecolor="#505050"
   bordercolor="#ffffff"
   borderopacity="1"
   inkscape:showpageshadow="0"
   inkscape:pageopacity="0"
   inkscape:pagecheckerboard="1"
   inkscape:deskcolor="#505050"
   showgrid="false"
   inkscape:zoom="8.29"
   inkscape:cx="48.6731"
   inkscape:cy="49.819059"
   inkscape:window-width="1920"
   inkscape:window-height="1009"
   inkscape:window-x="-8"
   inkscape:window-y="-8"
   inkscape:window-maximized="1"
   inkscape:current-layer="Layer_1" />
<style
   type="text/css"
   id="style3931">
	.st0{fill:none;}
</style>
<path
   d="M79.8,65.6c-0.3,0-0.6-0.1-0.9-0.1c-4.7,0-8.6,3.9-8.6,8.6c0,0.5,0.1,1.1,0.2,1.6c0.8,4,4.3,7,8.4,7c4.7,0,8.6-3.9,8.6-8.6  C87.5,69.7,84.1,66,79.8,65.6z M78.9,77.1c-1.5,0-2.7-1-2.9-2.4c0-0.2-0.1-0.4-0.1-0.6c0-1.7,1.3-3,3-3c0.1,0,0.2,0,0.3,0  c1.5,0.2,2.7,1.4,2.7,3C81.9,75.8,80.6,77.1,78.9,77.1z"
   id="path3933" />
<path
   class="st0"
   d="M81.9,74.1c0,1.7-1.3,3-3,3c-1.5,0-2.7-1-2.9-2.4l2.9-0.6l0.3-3C80.8,71.3,81.9,72.5,81.9,74.1z"
   id="path3935" />
<path
   d="M81.9,37.7c-2.9,0-5.5,1.5-7.1,3.7c-0.8,1.1-1.3,2.3-1.5,3.7c-0.1,0.4-0.1,0.8-0.1,1.2c0,4.4,3.4,8.1,7.7,8.5  c0.3,0,0.6,0,0.9,0c4.7,0,8.6-3.9,8.6-8.6S86.6,37.7,81.9,37.7z M81.9,49.3c-0.1,0-0.2,0-0.3,0c-1.5-0.1-2.7-1.4-2.7-3  c0-0.1,0-0.3,0-0.4c0.1-0.5,0.2-0.9,0.5-1.3c0.5-0.8,1.4-1.3,2.5-1.3c1.7,0,3,1.3,3,3S83.6,49.3,81.9,49.3z"
   id="path3937" />
<path
   class="st0"
   d="M84.9,46.3c0,1.7-1.3,3-3,3c-0.1,0-0.2,0-0.3,0l0.3-3l-2.5-1.7c0.5-0.8,1.4-1.3,2.5-1.3  C83.6,43.3,84.9,44.6,84.9,46.3z"
   id="path3939" />
<path
   class="st0"
   d="M81.9,46.3l-3-0.4c0.1-0.5,0.2-0.9,0.5-1.3L81.9,46.3z"
   id="path3941" />
<path
   d="M39.8,8.7c-4.7,0-8.6,3.9-8.6,8.6c0,1.6,0.5,3.1,1.2,4.4c0.4,0.7,1,1.4,1.6,1.9c0.6,0.6,1.3,1,2.1,1.4  c1.1,0.5,2.3,0.8,3.6,0.8c1.6,0,3.1-0.5,4.4-1.2c1.1-0.7,2-1.5,2.7-2.6c0.9-1.4,1.5-3,1.5-4.8C48.4,12.6,44.5,8.7,39.8,8.7z   M41.4,19.9c-0.5,0.3-1,0.5-1.6,0.5c-0.8,0-1.4-0.2-2-0.7l-0.2-0.2c-0.5-0.5-0.8-1.3-0.8-2.1c0-1.7,1.3-3,3-3c1.7,0,3,1.3,3,3  c0,0.6-0.2,1.1-0.5,1.6C42.1,19.3,41.8,19.6,41.4,19.9z"
   id="path3943" />
<path
   class="st0"
   d="M42.8,17.3c0,0.6-0.2,1.1-0.5,1.6L40,17.3l-2.2,2.3l-0.2-0.2c-0.5-0.5-0.8-1.3-0.8-2.1c0-1.7,1.3-3,3-3  C41.5,14.3,42.8,15.6,42.8,17.3z"
   id="path3945" />
<path
   class="st0"
   d="M42.3,19c-0.2,0.4-0.5,0.7-0.9,0.9L40,17.3L42.3,19z"
   id="path3947" />
<path
   d="M28.4,29.7c-1.5-1.4-3.6-2.3-5.9-2.3c-4.7,0-8.6,3.9-8.6,8.6s3.9,8.6,8.6,8.6c2,0,3.8-0.7,5.3-1.9c2-1.6,3.3-4,3.3-6.7  C31.2,33.5,30.1,31.3,28.4,29.7z M22.6,39c-1.7,0-3-1.3-3-3s1.3-3,3-3c0.8,0,1.5,0.3,2.1,0.8c0.6,0.5,0.9,1.3,0.9,2.2  c0,1-0.4,1.8-1.1,2.4C23.9,38.7,23.3,39,22.6,39z"
   id="path3949" />
<path
   class="st0"
   d="M22.6,36l1.9,2.4c-0.5,0.4-1.1,0.6-1.9,0.6c-1.7,0-3-1.3-3-3s1.3-3,3-3c0.8,0,1.5,0.3,2.1,0.8L22.6,36z"
   id="path3951" />
<path
   d="M39.8,49.3c-2,0-3.8,0.7-5.3,1.9c-2,1.6-3.3,4-3.3,6.7c0,4.7,3.9,8.6,8.6,8.6c1.1,0,2.2-0.2,3.2-0.6c3.1-1.3,5.4-4.4,5.4-8  C48.4,53.2,44.5,49.3,39.8,49.3z M39.8,60.9c-1.7,0-3-1.3-3-3c0-1,0.4-1.8,1.1-2.4c0.5-0.4,1.2-0.6,1.9-0.6c1.7,0,3,1.3,3,3  c0,1.3-0.8,2.4-1.9,2.8C40.5,60.8,40.2,60.9,39.8,60.9z"
   id="path3953" />
<path
   class="st0"
   d="M40.9,60.7c-0.3,0.1-0.7,0.2-1.1,0.2c-1.7,0-3-1.3-3-3c0-1,0.4-1.8,1.1-2.4l1.9,2.4L40.9,60.7z"
   id="path3955" />
<path
   d="M57,78.2c-0.8-4-4.3-7-8.5-7c-1.1,0-2.2,0.2-3.2,0.6c-3.1,1.3-5.4,4.4-5.4,8c0,4.7,3.9,8.6,8.6,8.6s8.6-3.9,8.6-8.6  C57.2,79.2,57.1,78.7,57,78.2z M48.6,82.8c-1.7,0-3-1.3-3-3c0-1.3,0.8-2.4,1.9-2.8c0.3-0.1,0.7-0.2,1.1-0.2c1.5,0,2.7,1,3,2.4  c0,0.2,0,0.4,0,0.6C51.6,81.5,50.3,82.8,48.6,82.8z"
   id="path3957" />
<path
   class="st0"
   d="M51.6,79.8c0,1.7-1.3,3-3,3s-3-1.3-3-3c0-1.3,0.8-2.4,1.9-2.8l1.1,2.8l3-0.6C51.6,79.4,51.6,79.6,51.6,79.8z"
   id="path3959" />
<rect
   x="28.7"
   y="36"
   transform="matrix(0.7866 -0.6174 0.6174 0.7866 -22.3069 29.2585)"
   width="5"
   height="21.8"
   id="rect3961" />
<rect
   x="41.7"
   y="60"
   transform="matrix(0.9277 -0.3733 0.3733 0.9277 -22.4926 21.4663)"
   width="5"
   height="17.6"
   id="rect3963" />
<rect
   x="51.3"
   y="74.4"
   transform="matrix(0.9829 -0.184 0.184 0.9829 -13.068 13.0431)"
   width="24.8"
   height="5"
   id="rect3965" />
<rect
   x="69.4"
   y="57.7"
   transform="matrix(0.107 -0.9943 0.9943 0.107 11.9593 133.6762)"
   width="22"
   height="5"
   id="rect3967" />
<polygon
   points="39.7,21.4 36.1,25.1 30,31.7 26.5,35.4 24.7,33.7 22.8,32 26.4,28.2 32.4,21.8 36,17.9 37.6,19.4 37.8,19.7 "
   id="polygon3969" />
<polygon
   points="78,46.6 40.9,21 43.7,16.9 80.8,42.5 "
   id="polygon3971" />
<path
   id="rect2702"
   style="stroke-width:1.00164"
   transform="matrix(0.86044616,0.50954137,-0.52350343,0.85202357,0,0)"
   d="m 70.878744,-36.86245 h 3.163728 c 2.033508,0 3.670591,1.637084 3.670591,3.670591 V 11.93241 c 0,2.033507 -1.637083,3.670591 -3.670591,3.670591 h -3.163728 c -2.033508,0 -3.670591,-1.637084 -3.670591,-3.670591 v -45.124269 c 0,-2.033507 1.637083,-3.670591 3.670591,-3.670591 z" /></svg>
