<?xml version="1.0" encoding="UTF-8"?>
<svg id="Layer_1" data-name="Layer 1" xmlns="http://www.w3.org/2000/svg" version="1.1" viewBox="0 0 100 100">
  <defs>
    <style>
      .cls-1, .cls-2, .cls-3 {
        stroke: #fff;
        stroke-miterlimit: 10;
      }

      .cls-1, .cls-3 {
        fill: none;
      }

      .cls-2 {
        fill: #fff;
      }

      .cls-3 {
        stroke-width: 2px;
      }
    </style>
  </defs>
  <path class="cls-2" d="M18.7,75.6c-4.7,0-8.6-3.9-8.6-8.6s3.9-8.6,8.6-8.6,8.6,3.9,8.6,8.6-3.9,8.6-8.6,8.6ZM18.7,64c-1.7,0-3,1.3-3,3s1.3,3,3,3,3-1.3,3-3-1.3-3-3-3Z"/>
  <path class="cls-2" d="M39.8,44.1c-4.7,0-8.6-3.9-8.6-8.6s3.9-8.6,8.6-8.6,8.6,3.9,8.6,8.6-3.9,8.6-8.6,8.6ZM39.8,32.5c-1.7,0-3,1.3-3,3s1.3,3,3,3,3-1.3,3-3-1.3-3-3-3Z"/>
  <path class="cls-2" d="M63.2,75.6c-4.7,0-8.6-3.9-8.6-8.6s3.9-8.6,8.6-8.6,8.6,3.9,8.6,8.6-3.9,8.6-8.6,8.6ZM63.2,64c-1.7,0-3,1.3-3,3s1.3,3,3,3,3-1.3,3-3-1.3-3-3-3Z"/>
  <path class="cls-2" d="M83.5,44.1c-4.7,0-8.6-3.9-8.6-8.6s3.9-8.6,8.6-8.6,8.6,3.9,8.6,8.6-3.9,8.6-8.6,8.6ZM83.5,32.5c-1.7,0-3,1.3-3,3s1.3,3,3,3,3-1.3,3-3-1.3-3-3-3Z"/>
  <path class="cls-1" d="M18.7,58.4c0-11,5.9-19.9,13.1-19.9"/>
  <path class="cls-1" d="M46.4,41c0,11.2,6.2,20.3,13.8,20.3"/>
  <path class="cls-3" d="M21.7,59c0-11.3,6.8-20.5,15.1-20.5"/>
  <path class="cls-3" d="M46.4,39.7c0,12,5.5,21.7,12.3,21.7"/>
  <path class="cls-3" d="M66.2,59c0-11.3,6.8-20.5,15.1-20.5"/>
</svg>
