<?xml version="1.0" encoding="utf-8"?>
<!-- Generator: Adobe Illustrator 23.0.1, SVG Export Plug-In . SVG Version: 6.00 Build 0)  -->
<svg version="1.1" id="Layer_1" xmlns="http://www.w3.org/2000/svg" xmlns:xlink="http://www.w3.org/1999/xlink" x="0px" y="0px"
	 viewBox="0 0 100 100" style="enable-background:new 0 0 100 100;" xml:space="preserve">
<g id="Solid_1_">
	<path d="M72.9,61.1V37.3c3.3-1.2,5.7-4.3,5.7-8c0-4.7-3.8-8.5-8.5-8.5c-3.7,0-6.8,2.4-8,5.7H38.2c-1.2-3.3-4.3-5.7-8-5.7
		c-4.7,0-8.5,3.8-8.5,8.5c0,3.7,2.4,6.8,5.7,8v23.8c-3.3,1.2-5.7,4.3-5.7,8c0,4.7,3.8,8.5,8.5,8.5c3.7,0,6.8-2.4,8-5.7H62
		c1.2,3.3,4.3,5.7,8,5.7c4.7,0,8.5-3.8,8.5-8.5C78.6,65.4,76.2,62.2,72.9,61.1z M70.1,26.4c1.6,0,2.8,1.3,2.8,2.8
		c0,1.6-1.3,2.8-2.8,2.8c-1.6,0-2.8-1.3-2.8-2.8C67.2,27.7,68.5,26.4,70.1,26.4z M30.2,26.4c1.6,0,2.8,1.3,2.8,2.8
		c0,1.6-1.3,2.8-2.8,2.8c-1.6,0-2.8-1.3-2.8-2.8C27.4,27.7,28.7,26.4,30.2,26.4z M30.2,71.9c-1.6,0-2.8-1.3-2.8-2.8
		c0-1.6,1.3-2.8,2.8-2.8c1.6,0,2.8,1.3,2.8,2.8C33.1,70.6,31.8,71.9,30.2,71.9z M62.1,66.2H38.2c-0.9-2.4-2.8-4.3-5.2-5.2V37.3
		c2.4-0.9,4.3-2.8,5.2-5.2H62c0.9,2.4,2.8,4.3,5.2,5.2v23.8C64.8,61.9,62.9,63.8,62.1,66.2z M70.1,71.9c-1.6,0-2.8-1.3-2.8-2.8
		c0-1.6,1.3-2.8,2.8-2.8c1.6,0,2.8,1.3,2.8,2.8S71.6,71.9,70.1,71.9z"/>
</g>
</svg>
