<?xml version="1.0" encoding="UTF-8" standalone="no"?>
<svg
   viewBox="0 0 100 100"
   version="1.1"
   id="svg1"
   sodipodi:docname="righthand.svg"
   inkscape:version="1.4 (86a8ad7, 2024-10-11)"
   width="100"
   height="100"
   xmlns:inkscape="http://www.inkscape.org/namespaces/inkscape"
   xmlns:sodipodi="http://sodipodi.sourceforge.net/DTD/sodipodi-0.dtd"
   xmlns="http://www.w3.org/2000/svg"
   xmlns:svg="http://www.w3.org/2000/svg">
  <defs
     id="defs1">
    <rect
       x="-1107.006"
       y="776.73901"
       width="1298.6425"
       height="982.64624"
       id="rect1" />
  </defs>
  <sodipodi:namedview
     id="namedview1"
     pagecolor="#ffffff"
     bordercolor="#000000"
     borderopacity="0.25"
     inkscape:showpageshadow="2"
     inkscape:pageopacity="0.0"
     inkscape:pagecheckerboard="0"
     inkscape:deskcolor="#d1d1d1"
     inkscape:zoom="3.4972913"
     inkscape:cx="23.732653"
     inkscape:cy="-0.57187116"
     inkscape:window-width="1926"
     inkscape:window-height="1631"
     inkscape:window-x="1481"
     inkscape:window-y="541"
     inkscape:window-maximized="0"
     inkscape:current-layer="svg1"
     showguides="true" />
  <path
     id="path1-2-1-5-4-2-5-1-3"
     d="m 159.99654,32.000017 c 17.7,0 32.00625,14.296875 32.00625,31.996875 V 240.00314 c -8.07601,0 -1.40861,7.24168 -0.24375,1.65938 2.24327,-0.43172 5.10984,-1.65938 0.24375,-1.65938 l 109.54688,-58.39687 c 15.42923,-8.22401 53.68436,-27.7895 75.09375,-35.65313 16.9816,-6.23731 31.785,50.56002 13.97813,60.1125 l -89.40938,47.96251 c -16.40077,8.79818 35.24057,-16.69824 63.81562,22.50937 12.77309,17.52587 35.85136,3.56666 39.74063,60.58125 6.5666,96.2626 -29.53162,174.88125 -100.77188,174.88125 h -19.2 c -59.6,0 -116.89375,-22.90312 -159.99375,-64.00312 L 12.396539,341.00002 c -16,-15.3 -16.696875,-40.59687 -1.396875,-56.59687 15.3,-16 40.596876,-16.60625 56.596876,-1.40625 l 60.50625,57.6 c -0.1,-1.5 -0.10312,-3.09375 -0.10312,-4.59375 V 63.996892 c 0,-17.7 14.29687,-31.996875 31.99687,-31.996875 z m 32.00625,208.003123 c 0,0.72399 -0.13932,1.15894 -0.24375,1.65938 -1.81353,0.34902 -3.2278,0.19102 0.24375,-1.65938 z m 116.48438,51.47813 h -47.625 c -9,0 -17.17292,0.78854 -24.50625,2.37188 -7.33333,1.49999 -13.57396,4.04791 -18.74063,7.63125 -5.16666,3.58333 -9.12812,8.24687 -11.87812,13.99687 -2.83333,5.75 -4.24688,12.78855 -4.24688,21.12188 0,5.99999 0.875,11.33646 2.625,16.00312 1.75,4.66667 4.20209,8.70521 7.36875,12.12188 3.16667,3.33333 6.96459,6.04479 11.38125,8.12812 4.33333,2.08333 9.07396,3.54479 14.24063,4.37813 -4,0.83333 -7.66355,3.12187 -10.99688,6.87187 -3.33333,3.66667 -6.66042,9.00313 -9.99375,16.00313 l -26.12812,54.75 h 36.12187 l 22.99688,-52.5 c 2.16666,-5 5.21458,-8.75 9.13125,-11.25 3.83333,-2.58333 8.37188,-3.88125 13.62187,-3.88125 h 5.87813 v 67.63125 h 30.75 z m -30.75,25.62188 v 46.125 h -12.50625 c -4.75,0 -9.03855,-0.5 -12.87188,-1.5 -3.91666,-1 -7.25312,-2.5 -10.00312,-4.5 -2.75,-2 -4.875,-4.45209 -6.375,-7.36875 -1.5,-3 -2.25,-6.42292 -2.25,-10.25625 0,-8 2.54792,-13.75001 7.63125,-17.25 5.08333,-3.5 12.70834,-5.25 22.875,-5.25 z"
     transform="matrix(-0.20833333,0,0,0.20833333,91.985392,-6.6666701)" />
</svg>
