<?xml version="1.0" encoding="UTF-8" standalone="no"?>
<svg
   viewBox="0 0 100 100"
   version="1.1"
   id="svg1"
   sodipodi:docname="righthand.svg"
   inkscape:version="1.4 (86a8ad7, 2024-10-11)"
   width="100"
   height="100"
   xmlns:inkscape="http://www.inkscape.org/namespaces/inkscape"
   xmlns:sodipodi="http://sodipodi.sourceforge.net/DTD/sodipodi-0.dtd"
   xmlns="http://www.w3.org/2000/svg"
   xmlns:svg="http://www.w3.org/2000/svg">
  <defs
     id="defs1">
    <rect
       x="-1107.006"
       y="776.73901"
       width="1298.6425"
       height="982.64624"
       id="rect1" />
  </defs>
  <sodipodi:namedview
     id="namedview1"
     pagecolor="#ffffff"
     bordercolor="#000000"
     borderopacity="0.25"
     inkscape:showpageshadow="2"
     inkscape:pageopacity="0.0"
     inkscape:pagecheckerboard="0"
     inkscape:deskcolor="#d1d1d1"
     inkscape:zoom="0.27416907"
     inkscape:cx="255.31692"
     inkscape:cy="660.1766"
     inkscape:window-width="1926"
     inkscape:window-height="1631"
     inkscape:window-x="1875"
     inkscape:window-y="572"
     inkscape:window-maximized="0"
     inkscape:current-layer="svg1"
     showguides="true" />
  <!--!Font Awesome Free 6.7.2 by @fontawesome - https://fontawesome.com License - https://fontawesome.com/license/free Copyright 2025 Fonticons, Inc.-->
  <path
     id="path1-2-1"
     d="m 160.00022,32 c 17.7,0 32,14.3 32,32 v 176 c -7.82746,0 -1.76363,6.8884 -0.32032,2.23438 C 193.88041,241.79441 197.16257,240 192.00022,240 l 110.56445,-84.02539 c 13.9205,-10.57901 46.62967,-39.27309 68.03906,-47.13672 16.9816,-6.23731 28.93077,46.51635 13.98047,60.11133 l -82.88867,75.375 c -13.73043,12.4857 -3.28278,17.68681 8.93359,12.8457 17.06482,-6.76246 53.37357,-2.97921 68.80664,21.99414 11.40061,18.44814 49.16545,0.72422 55.1543,57.55664 C 444.77633,433.38548 401.20022,512 304.00022,512 h -19.20118 c -59.6,0 -116.9,-22.9 -160,-64 L 12.400606,341 c -15.9999997,-15.3 -16.7003904,-40.59961 -1.40039,-56.59961 15.3,-16 40.599609,-16.60039 56.599609,-1.40039 l 60.500005,57.59961 c -0.10001,-1.5 -0.0996,-3.09961 -0.0996,-4.59961 V 64 c 0,-17.7 14.3,-32 32,-32 z m 32,208 c 0,0.97254 -0.14099,1.65612 -0.32032,2.23438 -1.55058,0.31001 -2.5759,-0.0334 0.32032,-2.23438 z m 119.0957,70.85156 h -37.20703 c -7.03126,0 -13.41146,0.61849 -19.14063,1.85547 -5.72916,1.17187 -10.61198,3.15755 -14.64843,5.95703 -4.03646,2.79948 -7.12891,6.44532 -9.27735,10.9375 -2.21354,4.49219 -3.32031,9.99349 -3.32031,16.50391 0,4.6875 0.68359,8.85417 2.05078,12.5 1.36719,3.64583 3.28776,6.80339 5.76172,9.47265 2.47395,2.60417 5.43619,4.72005 8.88672,6.34766 3.38541,1.6276 7.09635,2.76692 11.13281,3.41797 -3.125,0.65104 -5.98958,2.44141 -8.59375,5.37109 -2.60417,2.86459 -5.20833,7.03126 -7.8125,12.5 l -20.41016,42.77344 h 28.22266 l 17.96875,-41.01562 c 1.69271,-3.90625 4.06901,-6.83594 7.12891,-8.78907 2.99479,-2.01822 6.54296,-3.02734 10.64453,-3.02734 h 4.58984 v 52.83203 h 24.02344 z m -24.02344,20.01953 v 36.03516 h -9.76562 c -3.71094,0 -7.0638,-0.39062 -10.0586,-1.17187 -3.05989,-0.78125 -5.66406,-1.95313 -7.8125,-3.51563 -2.14844,-1.5625 -3.80859,-3.48307 -4.98047,-5.76172 -1.17187,-2.34375 -1.75781,-5.01302 -1.75781,-8.00781 0,-6.25 1.98568,-10.74218 5.95703,-13.47656 3.97136,-2.73438 9.92839,-4.10157 17.8711,-4.10157 z"
     transform="matrix(-0.20833333,0,0,0.20833333,95.193178,-6.6666666)" />
  <text
     xml:space="preserve"
     id="text1"
     style="font-weight:bold;font-size:29.3333px;line-height:1.2;font-family:Consolas;-inkscape-font-specification:'Consolas Bold';text-align:end;writing-mode:lr-tb;direction:ltr;white-space:pre;shape-inside:url(#rect1);display:inline;fill-rule:evenodd" />
  <g
     id="text2"
     transform="translate(-569.34171,298.4684)"
     style="fill:#ffffff;fill-opacity:1;stroke:#ffffff;stroke-opacity:1" />
  <g
     id="text2-3"
     transform="translate(-1258.5289,-602.61976)"
     style="fill:#ffffff;fill-opacity:1;stroke:#ffffff;stroke-opacity:1" />
</svg>
