<svg xmlns="http://www.w3.org/2000/svg" width="180.62mm" height="180.62mm" viewBox="0 0 512 512">
  <title>Artboard 1</title>
  <path d="M450.18,335.94a18.61,18.61,0,0,1,0,26.34l-62.07,62.06c-11.65,11.65-31.79,3.48-31.79-13.17v-31H310.71a9.29,9.29,0,0,1-6.81-3l-54.75-58.66,41.38-44.34,41,43.88h24.83v-31c0-16.63,20.13-24.83,31.79-13.17Zm-382.51-142h65.18l41,43.88,41.38-44.34-54.75-58.66a9.29,9.29,0,0,0-6.8-3h-86a9.31,9.31,0,0,0-9.31,9.31v43.45A9.31,9.31,0,0,0,67.67,193.93Zm288.65,0v31c0,16.65,20.14,24.81,31.79,13.17l62.07-62.06a18.61,18.61,0,0,0,0-26.34L388.11,87.66C376.45,76,356.32,84.2,356.32,100.83v31H310.71a9.29,9.29,0,0,0-6.81,3l-171,183.26H67.67a9.31,9.31,0,0,0-9.31,9.32v43.45a9.31,9.31,0,0,0,9.31,9.31h86a9.29,9.29,0,0,0,6.8-3L331.49,193.93Z"/>
</svg>
