<svg xmlns="http://www.w3.org/2000/svg" width="180.62mm" height="180.62mm" viewBox="0 0 512 512">
  <title>Artboard 1</title>
  <path d="M427.2,326.43a16.42,16.42,0,0,1,0,23.2l-54.69,54.68c-10.26,10.26-28,3.07-28-11.6V365.38H304.32a8.25,8.25,0,0,1-6-2.61l-48.23-51.68L286.54,272l36.09,38.66H344.5V283.36c0-14.66,17.73-21.88,28-11.6ZM90.2,201.31h57.43L183.71,240l36.45-39.06-48.23-51.68a8.2,8.2,0,0,0-6-2.61H90.2a8.21,8.21,0,0,0-8.2,8.21v38.28A8.2,8.2,0,0,0,90.2,201.31Zm254.3,0v27.34c0,14.67,17.75,21.86,28,11.6l54.69-54.68a16.42,16.42,0,0,0,0-23.2l-54.69-54.68c-10.28-10.27-28-3-28,11.6v27.33H304.32a8.25,8.25,0,0,0-6,2.61L147.63,310.69H90.2a8.2,8.2,0,0,0-8.2,8.2v38.28a8.21,8.21,0,0,0,8.2,8.21h75.74a8.2,8.2,0,0,0,6-2.61l150.7-161.46Z"/>
</svg>
