<svg version="1.1" id="Layer_1" xmlns="http://www.w3.org/2000/svg" xmlns:xlink="http://www.w3.org/1999/xlink" x="0px" y="0px"
	 viewBox="0 0 25 25" style="enable-background:new 0 0 25 25;" xml:space="preserve">
<path d="M11.6628 2.70711C12.0533 2.31658 12.6865 2.31658 13.077 2.70711L15.0099 4.64004C15.4004 5.03056 15.4004 5.66373 15.0099 6.05425C14.6194 6.44478 13.9862 6.44478 13.5957 6.05425L12.3699 4.82843L11.144 6.05425C10.7535 6.44478 10.1204 6.44478 9.72983 6.05425C9.33931 5.66373 9.33931 5.03056 9.72983 4.64004L11.6628 2.70711Z"/>
<path d="M16.7427 6.93503C17.295 6.93503 17.7427 7.38274 17.7427 7.93503V7.93513C17.7427 8.48741 17.295 8.93513 16.7427 8.93513C16.1904 8.93513 15.7427 8.48741 15.7427 7.93513V7.93503C15.7427 7.38274 16.1904 6.93503 16.7427 6.93503Z" />
<path d="M7.74268 6.93503C7.19039 6.93503 6.74268 7.38274 6.74268 7.93503V7.93513C6.74268 8.48741 7.19039 8.93513 7.74268 8.93513C8.29496 8.93513 8.74268 8.48741 8.74268 7.93513V7.93503C8.74268 7.38274 8.29496 6.93503 7.74268 6.93503Z" />
<path d="M22.208 11.838C22.5985 12.2285 22.5985 12.8617 22.208 13.2522L21.4896 13.9706L19.4872 13.1445L20.0867 12.5451L18.8609 11.3193C18.4703 10.9288 18.4703 10.2956 18.8609 9.90508C19.2514 9.51455 19.8845 9.51455 20.2751 9.90508L22.208 11.838ZM12.7797 19.5014L13.6058 21.5038L13.0771 22.0325C12.6865 22.4231 12.0534 22.4231 11.6628 22.0325L9.7299 20.0996C9.33938 19.7091 9.33938 19.0759 9.72991 18.6854C10.1204 18.2949 10.7536 18.2949 11.1441 18.6854L12.3699 19.9112L12.7797 19.5014Z" />
<path d="M7.74268 17.935C7.19039 17.935 6.74268 17.4873 6.74268 16.935V16.9349C6.74268 16.3826 7.19039 15.9349 7.74268 15.9349C8.29496 15.9349 8.74268 16.3826 8.74268 16.9349V16.935C8.74268 17.4873 8.29496 17.935 7.74268 17.935Z" />
<path d="M2.70711 11.838C2.31658 12.2285 2.31658 12.8617 2.70711 13.2522L4.64004 15.1851C5.03056 15.5757 5.66373 15.5757 6.05425 15.1851C6.44478 14.7946 6.44478 14.1615 6.05425 13.7709L4.82843 12.5451L6.05425 11.3193C6.44478 10.9288 6.44478 10.2956 6.05425 9.90507C5.66373 9.51454 5.03056 9.51454 4.64004 9.90507L2.70711 11.838Z"/>
<path d="M15.8886 21.793C15.9726 21.975 16.1546 22.1011 16.3506 22.1011H16.3926C16.6026 22.0871 16.7846 21.9331 16.8406 21.7231L17.7646 18.0271L21.4606 17.1031C21.6706 17.0471 21.8246 16.8651 21.8386 16.6551C21.8526 16.4311 21.7266 16.2351 21.5306 16.1511L13.0466 12.6511C12.8506 12.5811 12.6406 12.6231 12.5006 12.7631C12.3606 12.9031 12.3046 13.1271 12.3886 13.3091L15.8886 21.793Z" />
</svg>
