<svg version="1.1" id="Layer_1" 
    xmlns="http://www.w3.org/2000/svg" 
    xmlns:xlink="http://www.w3.org/1999/xlink" viewBox="0 0 100 100">
  <path
     id="path10"
     d="M 49.947266 0 A 50 50 0 0 0 0 50 A 50 50 0 0 0 50 100 A 50 50 0 0 0 100 50 A 50 50 0 0 0 50 0 A 50 50 0 0 0 49.947266 0 z M 49.798828 12.5 A 37.5 37.5 0 0 1 50 12.5 A 37.5 37.5 0 0 1 87.5 50 A 37.5 37.5 0 0 1 50 87.5 A 37.5 37.5 0 0 1 12.5 50 A 37.5 37.5 0 0 1 49.798828 12.5 z " />
  <path
     id="path16"
     d="M 21,52.736318 45,75 80,41 72,31.509121 45,60 30,44.776119 Z" />
</svg>
