<?xml version="1.0" encoding="UTF-8" standalone="no"?>
<svg
   version="1.1"
   id="Layer_1"
   x="0px"
   y="0px"
   viewBox="0 0 20 100"
   xml:space="preserve"
   sodipodi:docname="vertical_separator.svg"
   inkscape:version="1.1.2 (0a00cf5339, 2022-02-04, custom)"
   width="20"
   height="100"
   xmlns:inkscape="http://www.inkscape.org/namespaces/inkscape"
   xmlns:sodipodi="http://sodipodi.sourceforge.net/DTD/sodipodi-0.dtd"
   xmlns="http://www.w3.org/2000/svg"
   xmlns:svg="http://www.w3.org/2000/svg"><defs
   id="defs900" /><sodipodi:namedview
   id="namedview898"
   pagecolor="#ffffff"
   bordercolor="#666666"
   borderopacity="1.0"
   inkscape:pageshadow="2"
   inkscape:pageopacity="0.0"
   inkscape:pagecheckerboard="0"
   showgrid="false"
   inkscape:zoom="3.6"
   inkscape:cx="38.333333"
   inkscape:cy="8.75"
   inkscape:window-width="945"
   inkscape:window-height="1024"
   inkscape:window-x="2164"
   inkscape:window-y="351"
   inkscape:window-maximized="1"
   inkscape:current-layer="Layer_1" />
<g
   id="g935"
   transform="rotate(90,9.999999,9.999998)"><path
     id="path209"
     d="m 16.108609,9.999998 a 6.3913927,6.3913932 0 0 1 6.391393,-6.391393 6.3913927,6.3913932 0 0 1 6.391393,6.391393 6.3913927,6.3913932 0 0 1 -6.391393,6.391393 6.3913927,6.3913932 0 0 1 -6.391393,-6.391393 z" /><path
     id="path209-8"
     d="m 43.608603,9.999998 a 6.3913927,6.3913932 0 0 1 6.391393,-6.391393 6.3913927,6.3913932 0 0 1 6.391393,6.391393 6.3913927,6.3913932 0 0 1 -6.391393,6.391393 6.3913927,6.3913932 0 0 1 -6.391393,-6.391393 z" /><path
     id="path209-8-4"
     d="M 71.108607,9.999998 A 6.3913927,6.3913932 0 0 1 77.5,3.608605 6.3913927,6.3913932 0 0 1 83.891393,9.999998 6.3913927,6.3913932 0 0 1 77.5,16.391391 6.3913927,6.3913932 0 0 1 71.108607,9.999998 Z" /></g>
</svg>
