<?xml version="1.0" encoding="UTF-8" standalone="no"?>
<svg
    xmlns="http://www.w3.org/2000/svg" 
    xmlns:xlink="http://www.w3.org/1999/xlink" viewBox="0 0 20 100">
<path
   id="path209"
   d="M 17.5,20 A 7.4999996,7.5000002 0 0 1 10,27.5 7.4999996,7.5000002 0 0 1 2.5,20 7.4999996,7.5000002 0 0 1 10,12.5 7.4999996,7.5000002 0 0 1 17.5,20 Z"
   style="stroke-width:1.17345" /><path
   id="path209-8"
   d="M 17.5,50 A 7.4999996,7.5000002 0 0 1 10,57.5 7.4999996,7.5000002 0 0 1 2.5,50 7.4999996,7.5000002 0 0 1 10,42.5 7.4999996,7.5000002 0 0 1 17.5,50 Z"
   style="stroke-width:1.17345" /><path
   id="path209-8-4"
   d="M 17.5,80 A 7.4999996,7.5000002 0 0 1 10,87.5 7.4999996,7.5000002 0 0 1 2.5,80 7.4999996,7.5000002 0 0 1 10,72.5 7.4999996,7.5000002 0 0 1 17.5,80 Z"
   style="stroke-width:1.17345" />
</svg>
