<?xml version="1.0" encoding="utf-8"?>
<!-- Generator: Adobe Illustrator 23.0.1, SVG Export Plug-In . SVG Version: 6.00 Build 0)  -->
<svg version="1.1" id="Layer_1" xmlns="http://www.w3.org/2000/svg" xmlns:xlink="http://www.w3.org/1999/xlink" x="0px" y="0px"
	 viewBox="0 0 100 100" style="enable-background:new 0 0 100 100;" xml:space="preserve">
<path d="M50.5,77.3C26.7,77.3,8.1,52.1,7.3,51L6,49.2l1.3-1.8C8.1,46.3,26.7,21,50.5,21s42.4,25.3,43.2,26.3l1.3,1.8L93.7,51
	C92.9,52.1,74.3,77.3,50.5,77.3z M13.8,49.2c4.6,5.6,19.5,21.9,36.7,21.9s32.1-16.4,36.7-21.9c-4.6-5.6-19.5-21.9-36.7-21.9
	C33.3,27.2,18.4,43.6,13.8,49.2z"/>
<circle cx="50.5" cy="49.2" r="17.3"/>
</svg>
