<?xml version='1.0' encoding='UTF-8'?>
<svg xmlns:inkscape="http://www.inkscape.org/namespaces/inkscape" xmlns:sodipodi="http://sodipodi.sourceforge.net/DTD/sodipodi-0.dtd" xmlns="http://www.w3.org/2000/svg" xmlns:svg="http://www.w3.org/2000/svg" xmlns:rdf="http://www.w3.org/1999/02/22-rdf-syntax-ns#" xmlns:cc="http://creativecommons.org/ns#" xmlns:dc="http://purl.org/dc/elements/1.1/" width="824" height="824" viewBox="0 0 824 824" version="1.1" id="svg22" sodipodi:docname="plain.svg" inkscape:version="1.4.2 (ebf0e940d0, 2025-05-08)" inkscape:export-filename="logo.png" inkscape:export-xdpi="96" inkscape:export-ydpi="96">
  <sodipodi:namedview id="namedview22" pagecolor="#ffffff" bordercolor="#000000" borderopacity="0.25" inkscape:showpageshadow="2" inkscape:pageopacity="0.0" inkscape:pagecheckerboard="false" inkscape:deskcolor="#d1d1d1" showguides="true" inkscape:zoom="0.22627417" inkscape:cx="539.16892" inkscape:cy="828.64076" inkscape:window-width="1278" inkscape:window-height="1408" inkscape:window-x="0" inkscape:window-y="0" inkscape:window-maximized="0" inkscape:current-layer="g22"/>
  <defs id="defs19"><style id="style1">
      .a {
        fill: #06283d;
      }

      .b {
        fill: url(#a);
      }

      .c {
        fill: #a59678;
      }

      .d {
        fill: url(#b);
      }
    </style>
    <radialGradient id="a-3" cx="103.55" cy="103.55" fx="14.832241" fy="15.612816" r="196.89" gradientUnits="userSpaceOnUse" gradientTransform="matrix(4.9444712,0,0,4.9444712,-2.9648209e-5,1.824029e-6)" inkscape:label="a">
      <stop offset="0" stop-color="#4b475b" id="stop4" style="stop-color:#4c425d;stop-opacity:1;"/>
      <stop offset="0.56898302" stop-color="#4b475b" id="stop13" style="stop-color:#75678f;stop-opacity:1;"/>
      <stop offset="1" stop-color="#bcb5d9" id="stop10" style="stop-color:#bab3d1;stop-opacity:1;"/>
    </radialGradient>
    <linearGradient id="b-1" x1="61.343052" y1="27.19577" x2="135.23416" y2="177.1032" gradientUnits="userSpaceOnUse" gradientTransform="matrix(0.72185568,0,0,0.73037896,-0.88729692,-1.9750596)" spreadMethod="reflect" inkscape:label="b">
      <stop offset="0" stop-color="#526a77" id="stop2" style="stop-color:#406379;stop-opacity:1;"/>
      <stop offset="0.54454893" stop-color="#526a77" id="stop12" style="stop-color:#5b899a;stop-opacity:1;"/>
      <stop offset="1" stop-color="#94d1d6" id="stop19" style="stop-color:#72b5d1;stop-opacity:1;"/>
    </linearGradient>
    <radialGradient xmlns:xlink="http://www.w3.org/1999/xlink" inkscape:collect="always" xlink:href="#b-1" id="radialGradient2" cx="50.519199" cy="83.665291" fx="50.519199" fy="83.665291" r="51.052189" gradientTransform="matrix(1.6300632,0.21960867,-0.16740543,1.2425806,-17.824276,-31.267664)" gradientUnits="userSpaceOnUse"/>
    <radialGradient xmlns:xlink="http://www.w3.org/1999/xlink" inkscape:collect="always" xlink:href="#a-3" id="radialGradient25" gradientUnits="userSpaceOnUse" gradientTransform="matrix(-0.58778896,1.4487093,-2.0536813,-0.83324607,97.059234,-193.37168)" cx="122.9096" cy="-190.81799" fx="122.9096" fy="-190.81799" r="476.82007" spreadMethod="reflect"/>
  </defs>
  <title id="title19">Artboard 1</title>
  <metadata id="metadata13">
    <rdf:RDF>
      <cc:Work rdf:about="">
        <dc:title>Artboard 1</dc:title>
      </cc:Work>
    </rdf:RDF>
  </metadata>
  <g id="g22" inkscape:label="logo">
    <rect class="b" x="0" y="0" width="824" height="824" rx="187.33615" id="rect20-8" style="fill:#1f0b26;fill-opacity:1;stroke-width:0.217168" inkscape:label="outer-border"/>
    <rect class="b" x="28.308777" y="28.308777" width="767.38245" height="767.38245" rx="159.38022" id="rect25" style="fill:url(#radialGradient25);fill-opacity:1;stroke-width:0.202246" inkscape:label="background"/>
    <g id="g32" transform="matrix(5.4795874,0,0,5.4795874,-10.939427,10.822515)" style="stroke-width:0.0369091" inkscape:label="content">
      <path class="a" d="M 81.380379,134.81583 C 75.450898,134.44482 69.758684,132.43166 64.5057,128.30993 59.962151,124.82767 56.168663,120.46368 53.352731,115.47965 49.841243,109.28953 46.950989,96.055764 41.509962,87.967537 38.290938,83.231525 33.578441,79.97178 29.325924,76.269996 25.500278,72.908486 20.466221,68.439417 17.635636,61.014531 13.686279,50.519993 17.530081,39.180515 21.404119,31.570982 27.852827,17.963725 42.687422,8.3605115 57.339046,12.387293 c 4.809202,1.179028 9.106944,3.884539 12.249388,7.711233 3.311041,4.095231 4.647066,9.243314 5.72897,16.221181 0.964761,5.474896 0.800378,11.357069 3.064162,16.504362 1.452202,3.04964 4.225923,4.828597 6.048453,6.004887 4.753278,3.08654 11.735982,4.240982 21.006211,3.557913 5.03999,-0.584399 10.0293,-1.192409 15.01584,0.108916 10.40979,2.738802 14.14233,8.740358 16.40271,18.639106 0.77874,3.377832 2.79575,13.960222 0.0653,23.307969 -4.28423,13.99058 -15.97813,21.68976 -21.86302,24.63674 -14.26316,6.99433 -30.222004,6.04363 -33.676738,5.73623 z" id="path20" sodipodi:nodetypes="cccccccccccccccccc" style="fill:#1f0b26;fill-opacity:1;stroke-width:0.0369091"/>
      <path class="c" d="m 81.87413,129.2829 c -5.172974,-0.20596 -9.960902,-2.29901 -14.050131,-5.40222 -3.929091,-3.02523 -7.208536,-6.81091 -9.642671,-11.13118 C 55.02344,107.16053 52.024427,93.639556 46.055378,84.80172 42.621904,79.655699 37.556969,76.125414 32.970969,72.131198 29.380816,68.986217 25.181974,65.245217 22.820024,59.104875 19.346157,50.244204 23.516665,39.690577 26.341632,34.141392 31.462931,23.233855 43.463253,14.356925 55.886836,17.760468 c 3.675622,0.859571 6.968298,2.899959 9.374013,5.808838 2.178315,2.737415 3.448998,6.418768 4.559939,13.578161 0.967164,6.044424 1.032034,12.412613 3.550655,18.072748 2.178314,4.451022 5.808838,6.832646 8.03798,8.24855 5.862215,3.786956 13.987066,5.232965 24.440687,4.4365 4.39137,-0.43055 8.75821,-1.21669 13.10619,-0.06535 8.48539,2.259193 10.64393,6.597493 12.4527,14.522092 0.58989,2.555322 2.54375,12.310221 0.14522,20.512473 -3.93079,12.73524 -15.11227,19.26939 -19.04573,21.22403 -13.091842,6.42901 -28.195722,5.40193 -30.63436,5.18439 z" id="path21" sodipodi:nodetypes="cccccccccccccccccc" style="fill:#ccb98f;fill-opacity:1;stroke-width:0.0369091"/>
      <path class="d" d="m 54.72507,22.124358 c 2.760141,0.635158 5.231918,2.167251 7.028693,4.356629 1.619214,1.996789 2.628499,5.082734 3.630524,11.421629 0.991649,6.499689 1.218288,13.274476 3.942749,19.350691 2.708374,5.591008 7.261044,8.546254 9.649929,10.078336 8.105718,5.135967 17.873934,5.768527 27.207145,5.148085 5.56923,-0.413887 7.77659,-1.248907 11.58137,-0.21057 6.54095,1.605737 7.86089,5.141098 9.22154,11.131187 0.42306,1.824178 2.34095,10.951367 0.21783,18.232495 -3.31528,10.6491 -12.74062,16.47062 -16.72945,18.44305 -8.71602,4.24735 -20.132397,5.3789 -28.223703,4.6979 -4.313912,-0.15576 -8.296713,-1.89126 -11.690278,-4.50184 -3.451697,-2.64837 -6.331645,-5.96796 -8.466386,-9.75885 C 59.107808,105.13608 56.122123,91.50793 49.773034,82.195011 46.179118,76.711111 40.85016,72.904696 35.977043,68.682198 32.443349,65.582971 29.020199,62.497607 27.074999,57.478401 24.317747,50.080564 27.920427,41.040705 30.400558,36.174486 30.791576,35.338977 38.823414,18.644315 54.72507,22.124358 Z" id="path22" style="fill:url(#radialGradient2);fill-opacity:1;stroke-width:0.0369091;stroke:none" sodipodi:nodetypes="cccccccccccccccccc"/>
    </g>
  </g>
</svg>
