<?xml version="1.0" encoding="utf-8"?>
<!-- Generator: Adobe Illustrator 23.0.0, SVG Export Plug-In . SVG Version: 6.00 Build 0)  -->
<svg version="1.1" id="Layer_1" xmlns="http://www.w3.org/2000/svg" xmlns:xlink="http://www.w3.org/1999/xlink" x="0px" y="0px"
	 viewBox="0 0 100 100" style="enable-background:new 0 0 100 100;" xml:space="preserve">
<style type="text/css">
    path{fill:rgb(106, 115, 128)}
    polygon{fill:rgb(106, 115, 128)}
    circle{fill:rgb(106, 115, 128)}
    rect{fill:rgb(106, 115, 128)}
</style><path d="M8.7,41h82.5c2.9,0,5.2,2.1,5.2,4.8v7.5c0,2.6-2.3,4.8-5.2,4.8H8.7c-2.9,0-5.2-2.1-5.2-4.8v-7.5C3.5,43.2,5.9,41,8.7,41z"/>
<path d="M8.7,64.8h82.5c2.9,0,5.2,2.1,5.2,4.8v7.5c0,2.6-2.3,4.8-5.2,4.8H8.7c-2.9,0-5.2-2.1-5.2-4.8v-7.5
	C3.5,66.9,5.9,64.8,8.7,64.8z"/>
<path d="M8.7,17.3h82.5c2.9,0,5.2,2.1,5.2,4.8v7.5c0,2.6-2.3,4.8-5.2,4.8H8.7c-2.9,0-5.2-2.1-5.2-4.8V22C3.5,19.4,5.9,17.3,8.7,17.3
	z"/>
</svg>
