<?xml version="1.0" encoding="utf-8"?>
<!-- Generator: Adobe Illustrator 23.0.1, SVG Export Plug-In . SVG Version: 6.00 Build 0)  -->
<svg version="1.1" id="Layer_1" xmlns="http://www.w3.org/2000/svg" xmlns:xlink="http://www.w3.org/1999/xlink" x="0px" y="0px"
	 viewBox="0 0 100 100" style="enable-background:new 0 0 100 100;" xml:space="preserve">
<style type="text/css">
    path{fill:rgb(209, 210, 212)}
    polygon{fill:rgb(209, 210, 212)}
    circle{fill:rgb(209, 210, 212)}
    rect{fill:rgb(209, 210, 212)}
</style><g id="Outline">
	<path d="M79.1,59.7c-0.3,0-0.6,0.1-0.8,0.1L67.1,39.6c1-1.2,1.6-2.7,1.6-4.4c0-3.9-3.1-7-7-7c-2.1,0-3.9,0.9-5.2,2.3L30.2,21
		c-0.1-3.7-3.2-6.7-7-6.7c-3.9,0-7,3.1-7,7s3.1,7,7,7c2.1,0,3.9-0.9,5.2-2.3l26.3,9.6c0,0.6,0.1,1.1,0.3,1.6L33.7,53.6
		c-1-0.6-2.2-1-3.5-1c-3.9,0-7,3.1-7,7s3.1,7,7,7c1,0,1.9-0.2,2.7-0.6l8.3,8.3c-0.4,0.8-0.6,1.8-0.6,2.7c0,3.9,3.1,7,7,7
		c3.7,0,6.7-2.9,6.9-6.5l19.2-6.4c1.3,1.5,3.2,2.5,5.3,2.5c3.9,0,7-3.1,7-7C86.1,62.8,83,59.7,79.1,59.7z M47.7,70.1
		c-1,0-1.9,0.2-2.7,0.6l-8.3-8.3c0.4-0.8,0.6-1.8,0.6-2.7c0-0.7-0.1-1.3-0.3-1.9l21.3-16.5c1,0.6,2.2,1,3.5,1c0.3,0,0.6-0.1,0.8-0.1
		l11.2,20.2c-0.9,1.1-1.4,2.4-1.5,3.9L53,72.6C51.7,71.1,49.8,70.1,47.7,70.1z"/>
</g>
</svg>
