<?xml version="1.0" encoding="UTF-8" standalone="no"?>
<!-- Generator: Adobe Illustrator 23.0.6, SVG Export Plug-In . SVG Version: 6.00 Build 0)  -->

<svg
   version="1.1"
   id="Layer_1"
   x="0px"
   y="0px"
   viewBox="0 0 100 100"
   style="enable-background:new 0 0 100 100;"
   xml:space="preserve"
   sodipodi:docname="3D.svg"
   inkscape:version="1.4 (86a8ad7, 2024-10-11)"
   xmlns:inkscape="http://www.inkscape.org/namespaces/inkscape"
   xmlns:sodipodi="http://sodipodi.sourceforge.net/DTD/sodipodi-0.dtd"
   xmlns="http://www.w3.org/2000/svg"
   xmlns:svg="http://www.w3.org/2000/svg"><defs
   id="defs6" /><sodipodi:namedview
   id="namedview6"
   pagecolor="#ffffff"
   bordercolor="#000000"
   borderopacity="0.25"
   inkscape:showpageshadow="2"
   inkscape:pageopacity="0.0"
   inkscape:pagecheckerboard="0"
   inkscape:deskcolor="#d1d1d1"
   inkscape:zoom="10.108509"
   inkscape:cx="49.957912"
   inkscape:cy="65.835625"
   inkscape:window-width="2180"
   inkscape:window-height="1240"
   inkscape:window-x="1203"
   inkscape:window-y="499"
   inkscape:window-maximized="0"
   inkscape:current-layer="Layer_1" />
<g
   id="g6">
	<path
   d="M57.3,84.7h-32c-4.6,0-8.2-3.6-8.2-8.2v-32c0-4.6,3.6-8.2,8.2-8.2h32c4.6,0,8.2,3.6,8.2,8.2v32   C65.4,81.2,61.9,84.7,57.3,84.7z M26.9,74.9h28.7V46.2H26.9V74.9z"
   id="path1" />
	<path
   d="M74.7,63.6h-32c-4.6,0-8.2-3.6-8.2-8.2v-32c0-4.6,3.6-8.2,8.2-8.2h32c4.6,0,8.2,3.6,8.2,8.2v32   C82.9,60,79.3,63.6,74.7,63.6z M44.3,53.8h28.7V25.1H44.3V53.8z"
   id="path2" />
	<path
   d="M81.1,60.6L62.7,82.7l-6.9-6.9l13.8-15.3l5-3.5"
   id="path3" />
	<path
   d="M82,26.8L61.9,46.9l-6.9-7l20.4-20.4l0,0"
   id="path4" />
	<path
   d="M44.7,60.6L24.8,83.1l-6.9-6.9l18.8-22.2h1.6"
   id="path5" />
	<path
   d="M19,39.4L36,18.7l10.3,3L29.2,42l0,0"
   id="path6" />
</g>
<path
   d="m 51.4,27.9 c 1.9,0 17.887156,3.858327 19.087156,5.458327 L 85.174865,64.058364 C 86.541094,67.313949 86.4,72.3 83.6,74.5 80.8,76.7 76.58445,76.407138 74.38445,73.607138 L 46.3,38.4 c -2.074631,-2.600791 -1.920843,-6.770066 1,-9.1 1.546365,-1.233524 2.7,-1.4 4.1,-1.4 z"
   id="path1-8-2-8-5-11-2"
   transform="matrix(-0.24272554,-0.19362399,0.19362031,-0.24273015,98.803118,111.2704)"
   sodipodi:nodetypes="sccscccs" /><path
   d="m 51.4,27.9 c 1.9,0 17.887156,3.858327 19.087156,5.458327 L 85.174865,64.058364 C 86.541094,67.313949 86.4,72.3 83.6,74.5 80.8,76.7 76.58445,76.407138 74.38445,73.607138 L 46.3,38.4 c -2.074631,-2.600791 -1.920843,-6.770066 1,-9.1 1.546365,-1.233524 2.7,-1.4 4.1,-1.4 z"
   id="path1-8-2-8-5-11-3-6"
   transform="matrix(-0.19362392,-0.24272562,-0.24273007,0.19362038,111.27039,98.803144)"
   sodipodi:nodetypes="sccscccs" /></svg>
