<?xml version="1.0" encoding="UTF-8" standalone="no"?>
<!-- Generator: Adobe Illustrator 23.1.1, SVG Export Plug-In . SVG Version: 6.00 Build 0)  -->

<svg
   version="1.1"
   id="Layer_1"
   x="0px"
   y="0px"
   viewBox="0 0 100 100"
   style="enable-background:new 0 0 100 100;"
   xml:space="preserve"
   sodipodi:docname="canvas_grid_view.svg"
   inkscape:version="1.4 (86a8ad7, 2024-10-11)"
   xmlns:inkscape="http://www.inkscape.org/namespaces/inkscape"
   xmlns:sodipodi="http://sodipodi.sourceforge.net/DTD/sodipodi-0.dtd"
   xmlns="http://www.w3.org/2000/svg"
   xmlns:svg="http://www.w3.org/2000/svg"><defs
   id="defs9" /><sodipodi:namedview
   id="namedview9"
   pagecolor="#ffffff"
   bordercolor="#000000"
   borderopacity="0.25"
   inkscape:showpageshadow="2"
   inkscape:pageopacity="0.0"
   inkscape:pagecheckerboard="0"
   inkscape:deskcolor="#d1d1d1"
   showguides="true"
   inkscape:zoom="7.9061001"
   inkscape:cx="12.648461"
   inkscape:cy="51.668964"
   inkscape:window-width="2160"
   inkscape:window-height="3734"
   inkscape:window-x="5749"
   inkscape:window-y="-11"
   inkscape:window-maximized="1"
   inkscape:current-layer="Layer_1" />
<rect
   x="13"
   y="12"
   width="16.799999"
   height="16.799999"
   id="rect1"
   transform="matrix(0.99192461,0,0,0.99192462,4.920403,5.0631235)"
   ry="2.2179105" />
<rect
   x="41.700001"
   y="12"
   width="16.799999"
   height="16.799999"
   id="rect2"
   transform="matrix(0.99192461,0,0,0.99192462,0.33238142,5.0631235)"
   ry="2.2179105" />
<rect
   x="70.400002"
   y="12"
   width="16.799999"
   height="16.799999"
   id="rect3"
   transform="matrix(0.99192461,0,0,0.99192462,-4.2556401,5.0631235)"
   ry="2.2179105" />
<rect
   x="13"
   y="41.5"
   width="16.799999"
   height="16.799999"
   id="rect4"
   transform="matrix(0.99192461,0,0,0.99192462,4.920403,0.40296208)"
   ry="2.2179105" />
<rect
   x="41.700001"
   y="41.5"
   width="16.799999"
   height="16.799999"
   id="rect5"
   transform="matrix(0.99192461,0,0,0.99192462,0.33238142,0.40296208)"
   ry="2.2179105" />
<rect
   x="70.400002"
   y="41.5"
   width="16.799999"
   height="16.799999"
   id="rect6"
   transform="matrix(0.99192461,0,0,0.99192462,-4.2556401,0.40296208)"
   ry="2.2179105" />
<rect
   x="12.9"
   y="71"
   width="16.799999"
   height="16.799999"
   id="rect7"
   transform="matrix(0.99192461,0,0,0.99192462,4.9294205,-4.2571994)"
   ry="2.2179105" />
<rect
   x="41.599998"
   y="71"
   width="16.799999"
   height="16.799999"
   id="rect8"
   transform="matrix(0.99192462,0,0,0.99192462,0.34139912,-4.2571994)"
   ry="2.2179105" />
<rect
   x="70.300003"
   y="71"
   width="16.799999"
   height="16.799999"
   id="rect9"
   transform="matrix(0.99192461,0,0,0.99192462,-4.2466228,-4.2571994)"
   ry="2.2179105" />
<path
   d="m 51.4,27.9 c 1.9,0 17.887156,3.858327 19.087156,5.458327 L 85.174865,64.058364 C 86.541094,67.313949 86.4,72.3 83.6,74.5 80.8,76.7 76.58445,76.407138 74.38445,73.607138 L 46.3,38.4 c -2.074631,-2.600791 -1.920843,-6.770066 1,-9.1 1.546365,-1.233524 2.7,-1.4 4.1,-1.4 z"
   id="path1-8-2-8-5-11-2"
   transform="matrix(-0.24272561,-0.19362399,0.19362037,-0.24273015,98.803118,111.2704)"
   sodipodi:nodetypes="sccscccs" /><path
   d="m 51.4,27.9 c 1.9,0 17.887156,3.858327 19.087156,5.458327 L 85.174865,64.058364 C 86.541094,67.313949 86.4,72.3 83.6,74.5 80.8,76.7 76.58445,76.407138 74.38445,73.607138 L 46.3,38.4 c -2.074631,-2.600791 -1.920843,-6.770066 1,-9.1 1.546365,-1.233524 2.7,-1.4 4.1,-1.4 z"
   id="path1-8-2-8-5-11-3"
   transform="matrix(-0.19362398,-0.24272562,-0.24273014,0.19362038,111.2704,98.80312)"
   sodipodi:nodetypes="sccscccs" /></svg>
