<?xml version="1.0" encoding="utf-8"?>
<!-- Generator: Adobe Illustrator 23.0.1, SVG Export Plug-In . SVG Version: 6.00 Build 0)  -->
<svg version="1.1" id="Layer_1" xmlns="http://www.w3.org/2000/svg" xmlns:xlink="http://www.w3.org/1999/xlink" x="0px" y="0px"
	 viewBox="0 0 100 100" style="enable-background:new 0 0 100 100;" xml:space="preserve">
<g id="Outline">
	<g>
		<path d="M47.2,86.9c-1.4,0-2.7-0.9-3.3-2.2l-25-60.6c-0.6-1.3-0.2-2.9,0.8-3.9s2.5-1.3,3.9-0.8l60.6,25c1.4,0.6,2.3,2,2.2,3.6
			c-0.1,1.5-1.2,2.8-2.7,3.2l-26.4,6.6l-6.6,26.4c-0.4,1.5-1.7,2.6-3.2,2.7C47.3,86.9,47.2,86.9,47.2,86.9z M28.7,29.3L46.3,72
			l4.5-18c0.3-1.3,1.3-2.3,2.6-2.6l18-4.5L28.7,29.3z"/>
	</g>
</g>
<polygon points="26.3,27.2 45.7,75.4 53,56.2 75.2,46.8 "/>
</svg>
