<?xml version="1.0" encoding="utf-8"?>
<!-- Generator: Adobe Illustrator 23.0.1, SVG Export Plug-In . SVG Version: 6.00 Build 0)  -->
<svg version="1.1" id="Layer_1" xmlns="http://www.w3.org/2000/svg" xmlns:xlink="http://www.w3.org/1999/xlink" x="0px" y="0px"
	 viewBox="0 0 100 100" style="enable-background:new 0 0 100 100;" xml:space="preserve">
<path d="M50,30c-4.7,0-8.6-3.9-8.6-8.6s3.9-8.6,8.6-8.6s8.6,3.9,8.6,8.6S54.7,30,50,30z M50,18.4c-1.7,0-3,1.3-3,3s1.3,3,3,3
	s3-1.3,3-3S51.7,18.4,50,18.4z"/>
<path d="M77.8,58.9c-4.7,0-8.6-3.9-8.6-8.6s3.9-8.6,8.6-8.6s8.6,3.9,8.6,8.6S82.5,58.9,77.8,58.9z M77.8,47.3c-1.7,0-3,1.3-3,3
	s1.3,3,3,3s3-1.3,3-3S79.5,47.3,77.8,47.3z"/>
<path d="M50,85.6c-4.7,0-8.6-3.9-8.6-8.6s3.9-8.6,8.6-8.6s8.6,3.9,8.6,8.6S54.7,85.6,50,85.6z M50,74c-1.7,0-3,1.3-3,3s1.3,3,3,3
	s3-1.3,3-3S51.7,74,50,74z"/>
<path d="M22.2,58.6c-4.7,0-8.6-3.9-8.6-8.6s3.9-8.6,8.6-8.6s8.6,3.9,8.6,8.6S26.9,58.6,22.2,58.6z M22.2,47c-1.7,0-3,1.3-3,3
	s1.3,3,3,3s3-1.3,3-3S23.9,47,22.2,47z"/>
<path d="M26.4,44.5L21,43.5c2.2-11.2,10.7-20.2,21.7-23l1.4,5.4C35.1,28.2,28.2,35.5,26.4,44.5z"/>
<path d="M43.6,78c-11.5-2.5-20.7-12-22.8-23.6l5.5-1c1.7,9.4,9.1,17.1,18.4,19.2L43.6,78z"/>
<path d="M56.6,78l-1.3-5.5c9.3-2.2,16.4-9.6,18.2-18.9l5.5,1.1C76.8,66.2,68,75.4,56.6,78z"/>
<path d="M73.9,46.6c-1.1-9.8-7.9-17.9-17.4-20.5l1.5-5.4C69.8,24,78.2,33.9,79.5,46L73.9,46.6z"/>
</svg>
