<svg xmlns="http://www.w3.org/2000/svg" width="180.62mm" height="180.62mm" viewBox="0 0 512 512">
  <title>Artboard 1</title>
  <path d="M394.56,298.44s-38.45,55.66-38.45,76.89a38.45,38.45,0,1,0,76.89,0C433,354.1,394.56,298.44,394.56,298.44Zm-5.63-61.83L264.17,111.85a19.22,19.22,0,0,0-27.18,0l-49,49-51.77-51.77a9.6,9.6,0,0,0-13.58,0L109,122.67a9.61,9.61,0,0,0,0,13.59L160.81,188,103.89,245a57.65,57.65,0,0,0,0,81.54l70.4,70.4a57.65,57.65,0,0,0,81.54,0l133.09-133.1A19.22,19.22,0,0,0,388.93,236.61Zm-69.81,42.63H126.6a18.74,18.74,0,0,1,4.47-7.11l7.9-7.9,49-49,35.2,35.2a19.22,19.22,0,0,0,27.18-27.17L215.16,188l35.42-35.42,97.57,97.58-29,29Z"/>
</svg>
