<?xml version="1.0" encoding="UTF-8" standalone="no"?>
<svg
   width="20"
   height="22"
   viewBox="0 0 20 22"
   fill="none"
   version="1.1"
   id="svg1"
   sodipodi:docname="help.svg"
   inkscape:version="1.4 (86a8ad7, 2024-10-11)"
   xmlns:inkscape="http://www.inkscape.org/namespaces/inkscape"
   xmlns:sodipodi="http://sodipodi.sourceforge.net/DTD/sodipodi-0.dtd"
   xmlns="http://www.w3.org/2000/svg"
   xmlns:svg="http://www.w3.org/2000/svg">
  <defs
     id="defs1" />
  <sodipodi:namedview
     id="namedview1"
     pagecolor="#ffffff"
     bordercolor="#000000"
     borderopacity="0.25"
     inkscape:showpageshadow="2"
     inkscape:pageopacity="0.0"
     inkscape:pagecheckerboard="0"
     inkscape:deskcolor="#d1d1d1"
     inkscape:zoom="41.25"
     inkscape:cx="4.5818182"
     inkscape:cy="11.187879"
     inkscape:window-width="3840"
     inkscape:window-height="2054"
     inkscape:window-x="-11"
     inkscape:window-y="244"
     inkscape:window-maximized="1"
     inkscape:current-layer="svg1" />
  <path
     id="circle1"
     d="M 10,1 A 10,10 0 0 0 0,11 10,10 0 0 0 10,21 10,10 0 0 0 20,11 10,10 0 0 0 10,1 Z m 0.179688,3.5273438 c 1.2422,0 2.206978,0.30273 2.892578,0.90625 0.6855,0.5976499 1.027343,1.4433525 1.027343,2.5390624 0,0.49804 -0.111284,0.9706957 -0.333984,1.4160157 -0.2226,0.43945 -0.611369,0.9276971 -1.167969,1.4667971 l -0.71289,0.675781 c -0.4453,0.4278 -0.701125,0.929606 -0.765625,1.503906 l -0.0332,0.53711 H 8.8339844 c 0,-0.8203 0.1015612,-1.474538 0.3007812,-1.960938 0.19922,-0.4863 0.5605807,-0.964794 1.0878904,-1.433594 0.5332,-0.4745996 0.888653,-0.8574203 1.064453,-1.1503902 0.1758,-0.2988201 0.263672,-0.6132763 0.263672,-0.9414063 0,-0.99023 -0.456993,-1.484375 -1.371093,-1.484375 -0.4336105,0 -0.7812524,0.1347669 -1.0449224,0.4042969 -0.25781,0.26367 -0.39453,0.6289062 -0.40625,1.0976562 H 6.1796875 C 6.1914075,6.9843756 6.5527287,6.1093825 7.2617188,5.4765625 7.9765587,4.8437525 8.9492075,4.5273437 10.179688,4.5273438 Z M 10.003906,14.916016 c 0.416,0 0.755932,0.128918 1.019532,0.386718 0.269599,0.252 0.404296,0.574297 0.404296,0.966797 0,0.3867 -0.132784,0.705132 -0.396484,0.957031 -0.2578,0.252001 -0.599644,0.378907 -1.027344,0.378907 -0.4277298,0 -0.7734391,-0.126906 -1.0371091,-0.378907 -0.25782,-0.251899 -0.3867188,-0.570331 -0.3867188,-0.957031 0,-0.3925 0.1328044,-0.714797 0.3964844,-0.966797 0.26953,-0.2578 0.6113338,-0.386718 1.0273435,-0.386718 z" />
</svg>
