<svg width="20" height="22" viewBox="0 0 20 22" fill="none" xmlns="http://www.w3.org/2000/svg">
<circle cx="10" cy="11" r="10" fill="#858F94"/>
<path d="M8.83496 13.5713C8.83496 12.751 8.93457 12.0977 9.13379 11.6113C9.33301 11.125 9.69629 10.6475 10.2236 10.1787C10.7568 9.7041 11.1113 9.32031 11.2871 9.02734C11.4629 8.72852 11.5508 8.41504 11.5508 8.08691C11.5508 7.09668 11.0938 6.60156 10.1797 6.60156C9.74609 6.60156 9.39746 6.73633 9.13379 7.00586C8.87598 7.26953 8.74121 7.63574 8.72949 8.10449H6.18066C6.19238 6.98535 6.55273 6.10938 7.26172 5.47656C7.97656 4.84375 8.94922 4.52734 10.1797 4.52734C11.4219 4.52734 12.3857 4.8291 13.0713 5.43262C13.7568 6.03027 14.0996 6.87695 14.0996 7.97266C14.0996 8.4707 13.9883 8.94238 13.7656 9.3877C13.543 9.82715 13.1533 10.3164 12.5967 10.8555L11.8848 11.5322C11.4395 11.96 11.1846 12.4609 11.1201 13.0352L11.085 13.5713H8.83496ZM8.58008 16.2695C8.58008 15.877 8.71191 15.5547 8.97559 15.3027C9.24512 15.0449 9.58789 14.916 10.0039 14.916C10.4199 14.916 10.7598 15.0449 11.0234 15.3027C11.293 15.5547 11.4277 15.877 11.4277 16.2695C11.4277 16.6562 11.2959 16.9756 11.0322 17.2275C10.7744 17.4795 10.4316 17.6055 10.0039 17.6055C9.57617 17.6055 9.23047 17.4795 8.9668 17.2275C8.70898 16.9756 8.58008 16.6562 8.58008 16.2695Z" fill="#262931"/>
</svg>
