<?xml version="1.0" encoding="UTF-8" standalone="no"?>
<!-- Generator: Adobe Illustrator 23.1.1, SVG Export Plug-In . SVG Version: 6.00 Build 0)  -->

<svg
   version="1.1"
   id="Layer_1"
   x="0px"
   y="0px"
   viewBox="0 0 100 100"
   style="enable-background:new 0 0 100 100;"
   xml:space="preserve"
   sodipodi:docname="histogram.svg"
   inkscape:version="1.4.2 (f4327f4, 2025-05-13)"
   xmlns:inkscape="http://www.inkscape.org/namespaces/inkscape"
   xmlns:sodipodi="http://sodipodi.sourceforge.net/DTD/sodipodi-0.dtd"
   xmlns="http://www.w3.org/2000/svg"
   xmlns:svg="http://www.w3.org/2000/svg"><defs
   id="defs9" /><sodipodi:namedview
   id="namedview9"
   pagecolor="#ffffff"
   bordercolor="#000000"
   borderopacity="0.25"
   inkscape:showpageshadow="2"
   inkscape:pageopacity="0.0"
   inkscape:pagecheckerboard="0"
   inkscape:deskcolor="#d1d1d1"
   showguides="true"
   inkscape:zoom="3.9530501"
   inkscape:cx="-17.075423"
   inkscape:cy="96.760728"
   inkscape:window-width="1920"
   inkscape:window-height="1129"
   inkscape:window-x="-8"
   inkscape:window-y="-8"
   inkscape:window-maximized="1"
   inkscape:current-layer="Layer_1"><sodipodi:guide
     position="15,15"
     orientation="0,-1"
     id="guide1"
     inkscape:locked="false" /></sodipodi:namedview>
<rect
   x="15"
   y="38.398651"
   width="14.000001"
   height="46.60136"
   id="rect1"
   ry="0"
   style="stroke-width:1.52039" />








<path
   d="m 51.4,27.9 c 1.9,0 17.887156,3.858327 19.087156,5.458327 L 85.174865,64.058364 C 86.541094,67.313949 86.4,72.3 83.6,74.5 80.8,76.7 76.58445,76.407138 74.38445,73.607138 L 46.3,38.4 c -2.074631,-2.600791 -1.920843,-6.770066 1,-9.1 1.546365,-1.233524 2.7,-1.4 4.1,-1.4 z"
   id="path1-8-2-8-5-11-2"
   transform="matrix(-0.24272561,-0.19362399,0.19362037,-0.24273015,98.803118,111.2704)"
   sodipodi:nodetypes="sccscccs" /><path
   d="m 51.4,27.9 c 1.9,0 17.887156,3.858327 19.087156,5.458327 L 85.174865,64.058364 C 86.541094,67.313949 86.4,72.3 83.6,74.5 80.8,76.7 76.58445,76.407138 74.38445,73.607138 L 46.3,38.4 c -2.074631,-2.600791 -1.920843,-6.770066 1,-9.1 1.546365,-1.233524 2.7,-1.4 4.1,-1.4 z"
   id="path1-8-2-8-5-11-3"
   transform="matrix(-0.19362398,-0.24272562,-0.24273014,0.19362038,111.2704,98.80312)"
   sodipodi:nodetypes="sccscccs" /><rect
   x="29"
   y="15"
   width="14.000001"
   height="70"
   id="rect1-9"
   ry="0"
   style="stroke-width:1.8634" /><rect
   x="43"
   y="51.758354"
   width="14.000001"
   height="33.241642"
   id="rect1-9-8"
   ry="0"
   style="stroke-width:1.28411" /><rect
   x="57.000004"
   y="66.190033"
   width="14.000001"
   height="18.809967"
   id="rect1-9-8-2"
   ry="0"
   style="stroke-width:0.965936" /><rect
   x="71"
   y="57.933762"
   width="14.000001"
   height="27.066242"
   id="rect1-9-8-2-5"
   ry="0"
   style="stroke-width:1.15869" /></svg>
