<?xml version="1.0" encoding="UTF-8" standalone="no"?>
<svg
    xmlns="http://www.w3.org/2000/svg" 
    xmlns:xlink="http://www.w3.org/1999/xlink" viewBox="0 0 100 20">
<path
   id="path209"
   d="M 27.5,10 A 7.4999996,7.5000002 0 0 1 20,17.5 7.4999996,7.5000002 0 0 1 12.5,10 7.4999996,7.5000002 0 0 1 20,2.5 7.4999996,7.5000002 0 0 1 27.5,10 Z"
   style="stroke-width:1.17345" /><path
   id="path209-8"
   d="M 57.5,10 A 7.4999996,7.5000002 0 0 1 50,17.5 7.4999996,7.5000002 0 0 1 42.5,10 7.4999996,7.5000002 0 0 1 50,2.5 7.4999996,7.5000002 0 0 1 57.5,10 Z"
   style="stroke-width:1.17345" /><path
   id="path209-8-4"
   d="M 87.5,10 A 7.4999996,7.5000002 0 0 1 80,17.5 7.4999996,7.5000002 0 0 1 72.5,10 7.4999996,7.5000002 0 0 1 80,2.5 7.4999996,7.5000002 0 0 1 87.5,10 Z"
   style="stroke-width:1.17345" />
</svg>
