<?xml version="1.0" encoding="UTF-8" standalone="no"?>
<svg
   viewBox="0 0 100 100"
   version="1.1"
   id="svg1"
   sodipodi:docname="lefthand.svg"
   inkscape:version="1.4 (86a8ad7, 2024-10-11)"
   width="100"
   height="100"
   xmlns:inkscape="http://www.inkscape.org/namespaces/inkscape"
   xmlns:sodipodi="http://sodipodi.sourceforge.net/DTD/sodipodi-0.dtd"
   xmlns="http://www.w3.org/2000/svg"
   xmlns:svg="http://www.w3.org/2000/svg">
  <defs
     id="defs1">
    <rect
       x="-1107.006"
       y="776.73901"
       width="1298.6425"
       height="982.64624"
       id="rect1" />
  </defs>
  <sodipodi:namedview
     id="namedview1"
     pagecolor="#ffffff"
     bordercolor="#000000"
     borderopacity="0.25"
     inkscape:showpageshadow="2"
     inkscape:pageopacity="0.0"
     inkscape:pagecheckerboard="0"
     inkscape:deskcolor="#d1d1d1"
     inkscape:zoom="5.2386981"
     inkscape:cx="43.808594"
     inkscape:cy="63.947186"
     inkscape:window-width="2245"
     inkscape:window-height="1631"
     inkscape:window-x="1253"
     inkscape:window-y="348"
     inkscape:window-maximized="0"
     inkscape:current-layer="svg1"
     showguides="true" />
  <path
     id="path1-2-1-5-4-2-5-1"
     d="m 160.00244,32.000017 c -17.7,0 -32.00625,14.296875 -32.00625,31.996875 V 336.00315 c 0,1.5 0.003,3.09375 0.10313,4.59375 l -60.496881,-57.6 c -16,-15.2 -41.306251,-14.59375 -56.606251,1.40625 -15.2999998,16 -14.5937498,41.29687 1.40625,56.59687 L 124.79931,447.9969 c 43.1,41.1 100.40313,64.00312 160.00313,64.00312 h 19.2 c 71.24026,0 107.3291,-78.61865 100.7625,-174.88125 -3.88927,-57.01459 -26.96753,-43.05538 -39.74062,-60.58125 -28.57505,-39.20761 -80.2164,-13.71119 -63.81563,-22.50937 l 89.41875,-47.96251 c 17.80687,-9.55248 2.9941,-66.34981 -13.9875,-60.1125 -21.40939,7.86363 -59.66452,27.42912 -75.09375,35.65313 l -109.54687,58.39687 c 4.86218,0 2.00812,1.22667 -0.23438,1.65938 -1.16461,5.58308 -7.84183,-1.65938 0.23438,-1.65938 V 63.996892 c 0,-17.7 -14.29688,-31.996875 -31.99688,-31.996875 z m 31.99688,208.003123 c -3.47501,1.85223 -2.05055,2.00983 -0.23438,1.65938 0.10437,-0.50036 0.23438,-0.93559 0.23438,-1.65938 z m 18.24375,51.47813 h 31.24687 v 136.99688 h 69 V 454.8594 H 210.24307 Z"
     transform="matrix(0.20833333,0,0,0.20833333,7.5107396,-6.6666701)" />
</svg>
