<?xml version="1.0" encoding="utf-8"?>
<!-- Generator: Adobe Illustrator 23.0.1, SVG Export Plug-In . SVG Version: 6.00 Build 0)  -->
<svg version="1.1" id="Layer_1" xmlns="http://www.w3.org/2000/svg" xmlns:xlink="http://www.w3.org/1999/xlink" x="0px" y="0px"
	 viewBox="0 0 100 100" style="enable-background:new 0 0 100 100;" xml:space="preserve">
<path d="M66.7,54.4h-6V37.9H45.4v-6h16.3c2.8,0,5,2.2,5,5V54.4z"/>
<path d="M53.4,67.4H36.3c-2.8,0-5-2.2-5-5V45.1h6v16.3h16.1V67.4z"/>
<path d="M42.5,47.6H22.9c-2.8,0-5-2.2-5-5V23c0-2.8,2.2-5,5-5h19.6c2.8,0,5,2.2,5,5v19.6C47.5,45.4,45.3,47.6,42.5,47.6z M23.9,41.6
	h17.6V24H23.9V41.6z"/>
<path d="M75.7,81.3H56.1c-2.8,0-5-2.2-5-5V56.8c0-2.8,2.2-5,5-5h19.6c2.8,0,5,2.2,5,5v19.6C80.7,79.1,78.5,81.3,75.7,81.3z
	 M57.1,75.3h17.6V57.8H57.1V75.3z"/>
</svg>
