<?xml version="1.0" encoding="utf-8"?>
<!-- Generator: Adobe Illustrator 25.2.3, SVG Export Plug-In . SVG Version: 6.00 Build 0)  -->
<svg version="1.1" id="Layer_1" xmlns="http://www.w3.org/2000/svg" xmlns:xlink="http://www.w3.org/1999/xlink" x="0px" y="0px"
	 viewBox="0 0 100 100" style="enable-background:new 0 0 100 100;" xml:space="preserve">
<circle cx="80" cy="22.7" r="7.2"/>
<circle cx="19.5" cy="17.6" r="7.2"/>
<circle cx="72.8" cy="81.6" r="7.2"/>
<g>
	<path d="M39.8,43.8c-1.6-1.5-1.8-1.3-0.5,0.5l22.6,30.5c1.3,1.8,3.7,2,5.3,0.6s1.7-3.9,0.1-5.4L39.8,43.8z"/>
</g>
<g>
	<path d="M41.9,32.4c-2.1,0.8-2,1.2,0.2,0.8l25.5-3.9c2.2-0.3,3.5-2.2,3-4.1S68,22.3,66,23.1L41.9,32.4z"/>
</g>
<g>
	<path d="M27.7,88.5c0.4,2.2,0.6,2.1,0.5-0.1l-3.2-59c-0.1-2.2-2-3.8-4.2-3.5l-0.7,0.1c-2.2,0.3-3.6,2.2-3.2,4.4L27.7,88.5z"/>
</g>
</svg>
