<?xml version="1.0" encoding="utf-8"?>
<!-- Generator: Adobe Illustrator 23.0.1, SVG Export Plug-In . SVG Version: 6.00 Build 0)  -->
<svg version="1.1" id="Layer_1" xmlns="http://www.w3.org/2000/svg" xmlns:xlink="http://www.w3.org/1999/xlink" x="0px" y="0px"
	 viewBox="0 0 100 100" style="enable-background:new 0 0 100 100;" xml:space="preserve">
<g id="Solid">
	<path d="M79.4,30.1c0-2.4-0.9-4.6-2.6-6.3c-3.4-3.4-9.2-3.4-12.6,0L33.9,54.2c-2.8,0.2-5.5,1.3-7.5,3.3c-4.2,4.2-4,7.7-3.9,10.6
		c0.1,2.4,0.2,4.2-2.7,7.2l-4.3,4.3c5.4,0.7,6.7,1,9.6,1l0,0c4.4,0,12.7-0.8,18.1-6.2c2.1-2.1,3.2-4.7,3.4-7.6l30.2-30.2
		C78.5,34.7,79.4,32.5,79.4,30.1z M39,70c-3.1,3.1-7.9,4.1-11.5,4.3c1.1-2.6,1-4.8,0.9-6.7c-0.3-5.2,3.2-7.8,6.4-7.8
		c1.6,0,3.1,0.6,4.2,1.7C41.3,64,41.3,67.7,39,70z M72.6,32.2L45,59.8c-0.5-0.9-1.1-1.7-1.8-2.4s-1.6-1.3-2.4-1.8L68.4,28
		c1.1-1.1,3.1-1.1,4.2,0c0.6,0.6,0.9,1.3,0.9,2.1C73.5,30.9,73.2,31.7,72.6,32.2z"/>
</g>
</svg>
