<?xml version="1.0" encoding="utf-8"?>
<!-- Generator: Adobe Illustrator 23.0.1, SVG Export Plug-In . SVG Version: 6.00 Build 0)  -->
<svg version="1.1" id="Layer_1" xmlns="http://www.w3.org/2000/svg" xmlns:xlink="http://www.w3.org/1999/xlink" x="0px" y="0px"
	 viewBox="0 0 100 100" style="enable-background:new 0 0 100 100;" xml:space="preserve">
<path d="M58.8,82.6c-4.7,0-8.6-3.9-8.6-8.6s3.9-8.6,8.6-8.6s8.6,3.9,8.6,8.6S63.5,82.6,58.8,82.6z M58.8,71c-1.7,0-3,1.3-3,3
	s1.3,3,3,3s3-1.3,3-3S60.5,71,58.8,71z"/>
<path d="M39.5,39.8c-4.7,0-8.6-3.9-8.6-8.6s3.9-8.6,8.6-8.6s8.6,3.9,8.6,8.6S44.2,39.8,39.5,39.8z M39.5,28.2c-1.7,0-3,1.3-3,3
	s1.3,3,3,3s3-1.3,3-3S41.2,28.2,39.5,28.2z"/>
<path d="M19.2,82.6c-4.7,0-8.6-3.9-8.6-8.6s3.9-8.6,8.6-8.6s8.6,3.9,8.6,8.6S23.9,82.6,19.2,82.6z M19.2,71c-1.7,0-3,1.3-3,3
	s1.3,3,3,3s3-1.3,3-3S20.9,71,19.2,71z"/>
<path d="M83.1,39.8c-4.7,0-8.6-3.9-8.6-8.6s3.9-8.6,8.6-8.6s8.6,3.9,8.6,8.6S87.8,39.8,83.1,39.8z M83.1,28.2c-1.7,0-3,1.3-3,3
	s1.3,3,3,3s3-1.3,3-3S84.8,28.2,83.1,28.2z"/>
<rect x="51.1" y="49.2" transform="matrix(0.5355 -0.8445 0.8445 0.5355 -11.219 83.5029)" width="38.5" height="5.5"/>
<rect x="46.4" y="35.3" transform="matrix(0.9001 -0.4356 0.4356 0.9001 -18.0059 26.666)" width="5.5" height="34.7"/>
<rect x="10" y="51.3" transform="matrix(0.4615 -0.8872 0.8872 0.4615 -32.1006 55.1188)" width="38.8" height="5.5"/>
</svg>
