<svg width="100" height="100" xmlns="http://www.w3.org/2000/svg" xmlns:svg="http://www.w3.org/2000/svg" enable-background="new 0 0 100 100" version="1.1" xml:space="preserve">
 <style type="text/css">.st0{fill:none;}</style>
 <g class="layer">
  <title>Layer 1</title>
  <path d="m59.35,42.1c-0.3,0 -0.6,-0.1 -0.9,-0.1c-4.7,0 -8.6,3.9 -8.6,8.6c0,0.5 0.1,1.1 0.2,1.6c0.8,4 4.3,7 8.4,7c4.7,0 8.6,-3.9 8.6,-8.6c0,-4.4 -3.4,-8.1 -7.7,-8.5zm-0.9,11.5c-1.5,0 -2.7,-1 -2.9,-2.4c0,-0.2 -0.1,-0.4 -0.1,-0.6c0,-1.7 1.3,-3 3,-3c0.1,0 0.2,0 0.3,0c1.5,0.2 2.7,1.4 2.7,3c0,1.7 -1.3,3 -3,3z" id="svg_1" transform="matrix(1 0 0 1 0 0)"/>
  <path class="st0" d="m81.9,74.1c0,1.7 -1.3,3 -3,3c-1.5,0 -2.7,-1 -2.9,-2.4l2.9,-0.6l0.3,-3c1.6,0.2 2.7,1.4 2.7,3z" id="svg_2"/>
  <path d="m76.2,16c-2.9,0 -5.5,1.5 -7.1,3.7c-0.8,1.1 -1.3,2.3 -1.5,3.7c-0.1,0.4 -0.1,0.8 -0.1,1.2c0,4.4 3.4,8.1 7.7,8.5c0.3,0 0.6,0 0.9,0c4.7,0 8.6,-3.9 8.6,-8.6s-3.8,-8.5 -8.5,-8.5zm0,11.6c-0.1,0 -0.2,0 -0.3,0c-1.5,-0.1 -2.7,-1.4 -2.7,-3c0,-0.1 0,-0.3 0,-0.4c0.1,-0.5 0.2,-0.9 0.5,-1.3c0.5,-0.8 1.4,-1.3 2.5,-1.3c1.7,0 3,1.3 3,3s-1.3,3 -3,3z" id="svg_3"/>
  <path class="st0" d="m84.9,46.3c0,1.7 -1.3,3 -3,3c-0.1,0 -0.2,0 -0.3,0l0.3,-3l-2.5,-1.7c0.5,-0.8 1.4,-1.3 2.5,-1.3c1.7,0 3,1.3 3,3z" id="svg_4"/>
  <path class="st0" d="m81.9,46.3l-3,-0.4c0.1,-0.5 0.2,-0.9 0.5,-1.3l2.5,1.7z" id="svg_5"/>
  <path class="st0" d="m42.8,17.3c0,0.6 -0.2,1.1 -0.5,1.6l-2.3,-1.6l-2.2,2.3l-0.2,-0.2c-0.5,-0.5 -0.8,-1.3 -0.8,-2.1c0,-1.7 1.3,-3 3,-3c1.7,0 3,1.3 3,3z" id="svg_7"/>
  <path class="st0" d="m42.3,19c-0.2,0.4 -0.5,0.7 -0.9,0.9l-1.4,-2.6l2.3,1.7z" id="svg_8"/>
  <path class="st0" d="m40.9,60.7c-0.3,0.1 -0.7,0.2 -1.1,0.2c-1.7,0 -3,-1.3 -3,-3c0,-1 0.4,-1.8 1.1,-2.4l1.9,2.4l1.1,2.8z" id="svg_12"/>
  <path d="m84.62,75c-0.8,-4 -4.3,-7 -8.5,-7c-1.1,0 -2.2,0.2 -3.2,0.6c-3.1,1.3 -5.4,4.4 -5.4,8c0,4.7 3.9,8.6 8.6,8.6s8.6,-3.9 8.6,-8.6c0.1,-0.6 0,-1.1 -0.1,-1.6zm-8.4,4.6c-1.7,0 -3,-1.3 -3,-3c0,-1.3 0.8,-2.4 1.9,-2.8c0.3,-0.1 0.7,-0.2 1.1,-0.2c1.5,0 2.7,1 3,2.4c0,0.2 0,0.4 0,0.6c0,1.7 -1.3,3 -3,3z" id="svg_13" transform="matrix(1 0 0 1 0 0)"/>
  <path class="st0" d="m51.6,79.8c0,1.7 -1.3,3 -3,3s-3,-1.3 -3,-3c0,-1.3 0.8,-2.4 1.9,-2.8l1.1,2.8l3,-0.6c0,0.2 0,0.4 0,0.6z" id="svg_14"/>
  <rect height="5" id="svg_18" transform="matrix(0.568255 -0.822902 0.822902 0.568255 -26.3429 95.8746)" width="22" x="89" y="41"/>
  <rect height="39.6" id="svg_22" transform="rotate(90 50.4143 25.0478)" width="5" x="47.62" y="5.25"/>
  <path d="m23.48,16c-4.7,0 -8.6,3.9 -8.6,8.6c0,1.6 0.5,3.1 1.2,4.4c0.4,0.7 1,1.4 1.6,1.9c0.6,0.6 1.3,1 2.1,1.4c1.1,0.5 2.3,0.8 3.6,0.8c1.6,0 3.1,-0.5 4.4,-1.2c1.1,-0.7 2,-1.5 2.7,-2.6c0.9,-1.4 1.5,-3 1.5,-4.8c0.1,-4.6 -3.8,-8.5 -8.5,-8.5zm1.6,11.2c-0.5,0.3 -1,0.5 -1.6,0.5c-0.8,0 -1.4,-0.2 -2,-0.7l-0.2,-0.2c-0.5,-0.5 -0.8,-1.3 -0.8,-2.1c0,-1.7 1.3,-3 3,-3c1.7,0 3,1.3 3,3c0,0.6 -0.2,1.1 -0.5,1.6c-0.2,0.3 -0.5,0.6 -0.9,0.9z" id="svg_6" transform="matrix(1 0 0 1 0 0)"/>
  <path class="st0" d="m16.76,24.68l1.9,2.4c-0.5,0.4 -1.1,0.6 -1.9,0.6c-1.7,0 -3,-1.3 -3,-3s1.3,-3 3,-3c0.8,0 1.5,0.3 2.1,0.8l-2.1,2.2z" id="svg_10"/>
  <path d="m23.43,68.06c-2,0 -3.8,0.7 -5.3,1.9c-2,1.6 -3.3,4 -3.3,6.7c0,4.7 3.9,8.6 8.6,8.6c1.1,0 2.2,-0.2 3.2,-0.6c3.1,-1.3 5.4,-4.4 5.4,-8c0,-4.7 -3.9,-8.6 -8.6,-8.6zm0,11.6c-1.7,0 -3,-1.3 -3,-3c0,-1 0.4,-1.8 1.1,-2.4c0.5,-0.4 1.2,-0.6 1.9,-0.6c1.7,0 3,1.3 3,3c0,1.3 -0.8,2.4 -1.9,2.8c-0.4,0.1 -0.7,0.2 -1.1,0.2z" id="svg_11" transform="matrix(1 0 0 1 0 0)"/>
  <rect height="39.6" id="svg_15" transform="matrix(1 0 0 1 0 0)" width="5" x="20.93" y="31.15"/>
  <rect height="39.6" id="svg_25" transform="matrix(1 0 0 1 0 0) rotate(90 48.5551 76.7078)" width="5" x="45.76" y="56.91"/>
  <rect height="5" id="svg_26" transform="matrix(1 0 0 1 0 0) matrix(0.617198 0.786859 -0.786859 0.617198 65.3285 -35.3285)" width="22" x="68.7" y="56.87"/>
 </g>
</svg>
