<?xml version="1.0" encoding="UTF-8" standalone="no"?>
<!-- Generator: Adobe Illustrator 23.0.6, SVG Export Plug-In . SVG Version: 6.00 Build 0)  -->

<svg
   version="1.1"
   id="Layer_1"
   x="0px"
   y="0px"
   viewBox="0 0 100 100"
   style="enable-background:new 0 0 100 100;"
   xml:space="preserve"
   sodipodi:docname="roll.svg"
   inkscape:version="1.4 (86a8ad7, 2024-10-11)"
   xmlns:inkscape="http://www.inkscape.org/namespaces/inkscape"
   xmlns:sodipodi="http://sodipodi.sourceforge.net/DTD/sodipodi-0.dtd"
   xmlns="http://www.w3.org/2000/svg"
   xmlns:svg="http://www.w3.org/2000/svg"><defs
   id="defs2" /><sodipodi:namedview
   id="namedview2"
   pagecolor="#ffffff"
   bordercolor="#000000"
   borderopacity="0.25"
   inkscape:showpageshadow="2"
   inkscape:pageopacity="0.0"
   inkscape:pagecheckerboard="0"
   inkscape:deskcolor="#d1d1d1"
   inkscape:zoom="8"
   inkscape:cx="6.875"
   inkscape:cy="75.1875"
   inkscape:window-width="3840"
   inkscape:window-height="2054"
   inkscape:window-x="-11"
   inkscape:window-y="244"
   inkscape:window-maximized="1"
   inkscape:current-layer="Layer_1" />
<g
   id="g1"
   transform="matrix(0.94391646,0,0,0.94391646,2.728414,-0.66040773)">
	<path
   d="M 34.6,16.5 22.3,11.4 c -0.3,-0.1 -0.6,-0.2 -0.9,0 -0.3,0.1 -0.5,0.3 -0.6,0.6 -0.1,0.3 -0.2,0.6 0,0.9 l 1.8,4.3 -3.8,1.5 c -8,3.3 -12.1,7.7 -12,13 0,1.8 0.5,3.8 1.5,6 0.8,1.9 2.5,4.2 5.4,6.8 0.1,0.1 0.2,0.2 0.3,0.4 0.1,0.1 0.3,0.3 0.4,0.4 0.1,0.1 0.3,0.3 0.4,0.3 0.2,0.2 0.4,0.2 0.6,0.1 0.2,0 0.3,-0.2 0.4,-0.3 0,-0.2 0,-0.4 -0.1,-0.5 -0.1,-0.1 -0.1,-0.2 -0.2,-0.4 -0.1,-0.2 -0.2,-0.3 -0.2,-0.4 -0.4,-0.7 -0.7,-1.4 -1,-2 -0.5,-1.1 -0.8,-2.2 -1,-3.2 -0.2,-1 -0.2,-1.9 -0.1,-2.7 0,-0.8 0.3,-1.6 0.6,-2.3 0.4,-0.7 0.8,-1.4 1.3,-2 0.5,-0.6 1.2,-1.1 2,-1.7 0.8,-0.5 1.6,-1 2.4,-1.5 0.8,-0.4 1.8,-0.8 2.9,-1.3 l 3.8,-1.5 1.8,4.3 c 0.1,0.3 0.3,0.5 0.6,0.6 0.3,0.1 0.6,0.2 0.9,0 0.3,-0.1 0.5,-0.3 0.6,-0.6 l 5.1,-12.3 c 0.1,-0.3 0.2,-0.6 0,-0.9 0,-0.2 -0.2,-0.4 -0.6,-0.5 z"
   id="path1" />
</g>
<path
   d="M 60.1,88.6 85.5,74.8 V 49.5 L 60.1,58.7 Z M 57.6,54.3 85.3,44.2 57.6,34.2 29.9,44.2 Z m 32.9,-10 v 30.4 c 0,0.9 -0.2,1.8 -0.7,2.6 -0.5,0.8 -1.1,1.4 -1.9,1.9 L 60,94.4 C 59.3,94.8 58.5,95 57.6,95 56.7,95 55.9,94.8 55.2,94.4 L 27.3,79.2 C 26.5,78.8 25.8,78.1 25.4,77.3 24.9,76.5 24.7,75.6 24.7,74.7 V 44.3 c 0,-1.1 0.3,-2 0.9,-2.9 0.6,-0.9 1.4,-1.5 2.4,-1.9 L 55.9,29.4 c 0.6,-0.2 1.2,-0.3 1.7,-0.3 0.6,0 1.2,0.1 1.7,0.3 l 27.9,10.1 c 1,0.4 1.8,1 2.4,1.9 0.6,0.9 0.9,1.8 0.9,2.9 z"
   id="path2"
   transform="matrix(0.94391646,0,0,0.94391646,2.728414,-0.66040773)" />
<path
   d="m 51.4,27.9 c 1.9,0 17.887156,3.858327 19.087156,5.458327 L 85.174865,64.058364 C 86.541094,67.313949 86.4,72.3 83.6,74.5 80.8,76.7 76.58445,76.407138 74.38445,73.607138 L 46.3,38.4 c -2.074631,-2.600791 -1.920843,-6.770066 1,-9.1 1.546365,-1.233524 2.7,-1.4 4.1,-1.4 z"
   id="path1-8-2-8-5-11-2"
   transform="matrix(-0.24272561,-0.19362399,0.19362037,-0.24273015,98.803122,111.2704)"
   sodipodi:nodetypes="sccscccs" /><path
   d="m 51.4,27.9 c 1.9,0 17.887156,3.858327 19.087156,5.458327 L 85.174865,64.058364 C 86.541094,67.313949 86.4,72.3 83.6,74.5 80.8,76.7 76.58445,76.407138 74.38445,73.607138 L 46.3,38.4 c -2.074631,-2.600791 -1.920843,-6.770066 1,-9.1 1.546365,-1.233524 2.7,-1.4 4.1,-1.4 z"
   id="path1-8-2-8-5-11-3-6"
   transform="matrix(-0.19362398,-0.24272562,-0.24273014,0.19362038,111.2704,98.803132)"
   sodipodi:nodetypes="sccscccs" /></svg>
