<?xml version="1.0" encoding="utf-8"?>
<!-- Generator: Adobe Illustrator 23.0.1, SVG Export Plug-In . SVG Version: 6.00 Build 0)  -->
<svg version="1.1" id="Layer_1" xmlns="http://www.w3.org/2000/svg" xmlns:xlink="http://www.w3.org/1999/xlink" x="0px" y="0px"
	 viewBox="0 0 100 100" style="enable-background:new 0 0 100 100;" xml:space="preserve">
<g id="Solid">
	<g>
		<polygon points="70.7,14.7 63.5,14.7 63.5,29.2 48.9,29.2 48.9,36.5 63.5,36.5 63.5,51 70.7,51 70.7,36.5 85.3,36.5 85.3,29.2 
			70.7,29.2 		"/>
	</g>
</g>
<g id="Outline">
	<g>
		<path d="M35.4,85.9c-0.9,0-1.8-0.6-2.2-1.5L16.8,44.5c-0.4-0.9-0.2-1.9,0.5-2.6c0.7-0.7,1.7-0.9,2.6-0.5l39.9,16.4
			c0.9,0.4,1.5,1.3,1.4,2.3s-0.8,1.9-1.8,2.1L42,66.6L37.6,84c-0.2,1-1.1,1.7-2.1,1.8C35.5,85.9,35.5,85.9,35.4,85.9z M23.3,47.9
			L34.9,76l3-11.9c0.2-0.8,0.9-1.5,1.7-1.7l11.9-3L23.3,47.9z"/>
	</g>
</g>
<polygon points="21.7,46.6 34.5,78.3 39.3,65.7 53.9,59.5 "/>
</svg>
