<svg xmlns="http://www.w3.org/2000/svg" viewBox="0 0 41.832 35.983"><path d="m0.33918 35.365c1.8674-3.4036 20.46-35.365 20.573-35.365 0.11371 0 11.673 19.873 20.187 34.706l0.73296 1.277h-41.832zm22.464-4.5882c0.26615-0.26615 0.56027-0.86568 0.65359-1.3323 0.14263-0.71316 0.0415-0.97658-0.63468-1.6527-1.0607-1.0607-2.6612-1.1289-3.6352-0.15491-1.5465 1.5465-0.14955 4.064 2.0884 3.7639 0.57417-0.077 1.2617-0.35778 1.5278-0.62393zm0.0649-5.8399c0.0731-0.25466 0.21536-3.1122 0.3161-6.35l0.18316-5.887h-2.4328c-2.1912 0-2.4196 0.046-2.2998 0.46302 0.0731 0.25467 0.21536 3.1122 0.3161 6.35l0.18316 5.887h1.8006c1.4878 0 1.8237-0.0804 1.9335-0.46302z"/></svg>