<?xml version="1.0" encoding="utf-8"?>
<!-- Generator: Adobe Illustrator 23.0.1, SVG Export Plug-In . SVG Version: 6.00 Build 0)  -->
<svg version="1.1" id="Layer_1" xmlns="http://www.w3.org/2000/svg" xmlns:xlink="http://www.w3.org/1999/xlink" x="0px" y="0px"
	 viewBox="0 0 100 100" style="enable-background:new 0 0 100 100;" xml:space="preserve">
<path d="M41.5,67.6c-14.4,0-26.1-11.7-26.1-26.1s11.7-26.1,26.1-26.1s26.1,11.7,26.1,26.1S55.9,67.6,41.5,67.6z M41.5,22.4
	C31,22.4,22.4,31,22.4,41.5c0,10.5,8.6,19.1,19.1,19.1c10.5,0,19.1-8.6,19.1-19.1C60.6,31,52,22.4,41.5,22.4z"/>
<path d="M84.4,79.8L64.2,60.6c-1.4,1.7-3.1,3.2-4.8,4.6l20.5,19.4c0.6,0.6,1.5,0.9,2.3,0.9c0.9,0,1.8-0.3,2.4-1
	C85.8,83.2,85.7,81.1,84.4,79.8z"/>
</svg>
