<?xml version="1.0" encoding="utf-8"?>
<!-- Generator: Adobe Illustrator 23.0.6, SVG Export Plug-In . SVG Version: 6.00 Build 0)  -->
<svg version="1.1" id="Layer_1" xmlns="http://www.w3.org/2000/svg" xmlns:xlink="http://www.w3.org/1999/xlink" x="0px" y="0px"
	 viewBox="0 0 200 200" style="enable-background:new 0 0 200 200;" xml:space="preserve">
<style>
  path {
    fill: #000000;
  }
  @media (prefers-color-scheme: dark) {
    path { fill: #E0E0E0; }
  }
</style>
<path d="m 0,0 c -1.2030785,63.115223 0,200 0,200 z m 67.208984,28.664062 c -2.9406,0.0272 -6.187871,0.268217 -7.607422,0.642579 -8.188777,2.159531 -17.799896,10.290624 -22.201171,18.78125 -2.509121,4.840418 -5.376336,12.847947 -6.494141,18.142578 -0.520648,2.46613 -0.612413,3.487863 -0.619141,6.841797 -0.0068,3.310851 0.07299,4.271188 0.501953,5.980468 1.58463,6.314223 5.215831,11.816947 11.730469,17.775391 1.171794,1.071749 4.322714,3.785705 7.001953,6.031255 9.529013,7.9865 12.658386,11.81314 17.181641,21.01757 2.562497,5.2144 4.4461,9.92233 7.193359,17.97852 1.1095,3.2535 2.509197,6.95849 3.111328,8.23437 5.170882,10.95677 15.479549,20.74896 24.624998,23.39063 1.70416,0.49224 5.41592,1.10939 8.46289,1.4082 0.51059,0.0501 3.80043,0.0579 7.31055,0.0156 4.76993,-0.0577 7.26926,-0.19792 9.89648,-0.55274 10.67363,-1.44149 19.42475,-4.42607 26.02344,-8.87695 5.42029,-3.65604 10.94104,-8.25065 13.75,-11.44141 7.4771,-8.4933 9.66701,-17.73882 7.98828,-33.7207 -1.02128,-9.72282 -3.37226,-16.0438 -7.45117,-20.0293 -1.67479,-1.636419 -2.17992,-2.023559 -3.79101,-2.910153 -4.16987,-2.294657 -9.86466,-2.835601 -21.35157,-2.025391 -11.79611,0.832018 -18.09635,0.249147 -26.22461,-2.427734 C 104.50807,89.054266 97.149003,81.997999 94.90625,72.457031 94.655932,71.392958 94.125657,67.963798 93.728516,64.837891 91.299489,45.719717 89.49683,39.253775 85.503906,35.328125 82.103616,31.985129 77.065232,29.62118 71.710938,28.861328 c -1.083059,-0.1537 -2.737593,-0.213585 -4.501954,-0.197266 z" />
</svg>
